<svg width="20.000000" height="20.000000" viewBox="0 0 20 20" fill="none" xmlns="http://www.w3.org/2000/svg" xmlns:xlink="http://www.w3.org/1999/xlink">
	<path id="形状结合" d="M10.4218 3.19615L17.6253 6.54665C17.8757 6.6631 17.9842 6.96048 17.8678 7.21086C17.8181 7.31775 17.7322 7.40364 17.6253 7.45335L17 7.74419L17 12L16 12L16 8.2093L15 8.67442L15 14.5071C15 14.8254 14.8485 15.1246 14.5921 15.313C13.0614 16.4377 11.5307 17 10 17C8.4693 17 6.93857 16.4377 5.40787 15.313C5.15146 15.1245 5 14.8253 5 14.5071L5 8.67442L2.37473 7.45335C2.12436 7.3369 2.01578 7.03952 2.13223 6.78914C2.18195 6.68224 2.26785 6.59636 2.37473 6.54665L9.57828 3.19615C9.84567 3.07178 10.1543 3.07178 10.4218 3.19615ZM3.771 7L10 4.10287L16.228 7L10 9.89713L3.771 7ZM10.4218 10.8038L14 9.13953L14 14.5071L13.727 14.7013C12.4552 15.575 11.2172 16 10 16C8.69586 16 7.36777 15.5121 6 14.5071L6 9.13954L9.57828 10.8038C9.84567 10.9282 10.1543 10.9282 10.4218 10.8038Z" clip-rule="evenodd" fill-rule="evenodd" fill="#000000" fill-opacity="1.000000"/>
</svg>
