<svg width="20.000000" height="20.000000" viewBox="0 0 20 20" fill="none" xmlns="http://www.w3.org/2000/svg" xmlns:xlink="http://www.w3.org/1999/xlink">
	<path id="形状结合" d="M17.6253 6.54665L10.4218 3.19615C10.1543 3.07178 9.84567 3.07178 9.57828 3.19615L2.37473 6.54665C1.98923 6.72595 1.98923 7.27405 2.37473 7.45335L9.57828 10.8038C9.84567 10.9282 10.1543 10.9282 10.4218 10.8038L16 8.2093L16 12L17 12L17 7.74419L17.6253 7.45335C18.0108 7.27405 18.0108 6.72595 17.6253 6.54665ZM9.58209 11.8078L5 9.7L5 14.5194C5 14.8232 5.13815 15.1107 5.38788 15.2837C6.18484 15.8356 8.09244 17 10 17C11.9076 17 13.8152 15.8356 14.6121 15.2837C14.8619 15.1107 15 14.8232 15 14.5194L15 9.7L10.4179 11.8078C10.1527 11.9298 9.84735 11.9298 9.58209 11.8078Z" clip-rule="evenodd" fill-rule="evenodd" fill="#000000" fill-opacity="1.000000"/>
	<path id="形状结合" d="M17.2036 7.45335L10 4.10287L10 4.10287L2.79648 7.45335Q3.0856 7.31888 3.0856 7Q3.0856 6.68112 2.79648 6.54665L10 9.89713L10 9.89713L10 9.89713L15.5783 7.30258Q15.6676 7.26104 15.7633 7.23773Q15.859 7.21441 15.9574 7.21021Q16.0558 7.20601 16.1531 7.22109Q16.2504 7.23616 16.3429 7.26994Q16.4355 7.30372 16.5196 7.35489Q16.6038 7.40607 16.6763 7.47268Q16.7489 7.53929 16.807 7.61878Q16.8652 7.69826 16.9067 7.78757Q17 7.98813 17 8.2093L17 12L16 12L16 11L17 11L17 12L16 12L16 7.74419Q16 7.6013 16.04 7.46412Q16.08 7.32695 16.1569 7.20647Q16.2337 7.086 16.3412 6.99186Q16.4487 6.89773 16.5783 6.83746L17.2036 6.54665Q16.9144 6.68112 16.9144 7Q16.9144 7.31888 17.2036 7.45335ZM18.047 5.63992Q18.9144 6.04337 18.9144 7Q18.9144 7.95663 18.047 8.36008L17.4218 8.65091L17 7.74419L18 7.74419L18 12Q18 12.0985 17.9808 12.1951Q17.9616 12.2917 17.9239 12.3827Q17.8862 12.4737 17.8315 12.5556Q17.7767 12.6375 17.7071 12.7071Q17.6375 12.7767 17.5556 12.8315Q17.4737 12.8862 17.3827 12.9239Q17.2917 12.9616 17.1951 12.9808Q17.0985 13 17 13L16 13Q15.9015 13 15.8049 12.9808Q15.7083 12.9616 15.6173 12.9239Q15.5263 12.8862 15.4444 12.8315Q15.3625 12.7767 15.2929 12.7071Q15.2232 12.6375 15.1685 12.5556Q15.1138 12.4737 15.0761 12.3827Q15.0384 12.2917 15.0192 12.1951Q15 12.0985 15 12L15 8.2093L16 8.2093L16.4218 9.11603L10.8435 11.7106Q10 12.1029 9.15656 11.7106L1.953 8.36008Q1.0856 7.95663 1.0856 7Q1.0856 6.04337 1.953 5.63992L9.15656 2.28943Q10 1.89713 10.8435 2.28943L18.047 5.63992ZM9.16418 12.7162L4.58209 10.6085L5 9.7L6 9.7L6 14.5194Q6 14.4912 5.95718 14.4616Q8.17883 16 10 16Q11.8212 16 14.0428 14.4616Q14 14.4912 14 14.5194L14 9.7L15 9.7L15.4179 10.6085L10.8358 12.7162Q10 13.1007 9.16418 12.7162ZM10 10.8993L10 10.8993L14.5821 8.7915Q14.781 8.7 15 8.7Q15.0985 8.7 15.1951 8.71921Q15.2917 8.73843 15.3827 8.77612Q15.4737 8.81381 15.5556 8.86853Q15.6375 8.92325 15.7071 8.99289Q15.7767 9.06253 15.8315 9.14443Q15.8862 9.22632 15.9239 9.31731Q15.9616 9.40831 15.9808 9.50491Q16 9.60151 16 9.7L16 14.5194Q16 15.539 15.1814 16.1058Q12.446 18 10 18Q7.55396 18 4.81857 16.1058Q4 15.539 4 14.5194L4 9.7Q4 9.48103 4.09152 9.28209Q4.13268 9.19261 4.19051 9.11288Q4.24833 9.03315 4.3206 8.96623Q4.39287 8.89932 4.47681 8.84779Q4.56074 8.79626 4.65311 8.76209Q4.74549 8.72792 4.84275 8.71243Q4.94002 8.69695 5.03844 8.70073Q5.13685 8.70452 5.23264 8.72743Q5.32843 8.75034 5.41791 8.7915L10 10.8993Z" fill-rule="evenodd" fill="#000000" fill-opacity="1.000000"/>
</svg>
