<svg width="20.000000" height="20.000000" viewBox="0 0 20 20" fill="none" xmlns="http://www.w3.org/2000/svg" xmlns:xlink="http://www.w3.org/1999/xlink">
	<path id="形状结合" d="M14 6C14 7.43686 13.2402 8.69814 12.1009 9.4035L12.75 12L15 12C15.5523 12 16 12.4477 16 13L16 15C16 15.5523 15.5523 16 15 16L5 16C4.44772 16 4 15.5523 4 15L4 13C4 12.4477 4.44772 12 5 12L7.25 12L7.89914 9.4035C6.75983 8.69814 6 7.43686 6 6C6 3.79286 7.79288 2 10 2C12.2071 2 14 3.79286 14 6ZM15 17L5 17L5 18L15 18L15 17Z" clip-rule="evenodd" fill-rule="evenodd" fill="#000000" fill-opacity="1.000000"/>
</svg>
