<svg width="20.000000" height="20.000000" viewBox="0 0 20 20" fill="none" xmlns="http://www.w3.org/2000/svg" xmlns:xlink="http://www.w3.org/1999/xlink">
	<path id="形状结合" d="M10 2C12.2091 2 14 3.79086 14 6C14 7.43803 13.2411 8.69882 12.1021 9.40379L13 13L7 13L7.89893 9.4044C6.75928 8.69955 6 7.43845 6 6C6 3.79086 7.79086 2 10 2ZM7 6C7 4.34314 8.34314 3 10 3C11.6569 3 13 4.34314 13 6C13 7.05228 12.4548 8.00946 11.5758 8.55347L10.955 8.93768L11.719 12L8.28101 12L9.04626 8.9382L8.42493 8.55392L8.26401 8.44717C7.47943 7.88997 7 6.9868 7 6Z" clip-rule="evenodd" fill-rule="evenodd" fill="#000000" fill-opacity="1.000000"/>
	<path id="矩形" d="M15 12C15.5523 12 16 12.4477 16 13L16 15C16 15.5523 15.5523 16 15 16L5 16C4.44772 16 4 15.5523 4 15L4 13C4 12.4477 4.44772 12 5 12L15 12ZM5 13L15 13L15 15L5 15L5 13Z" clip-rule="evenodd" fill-rule="evenodd" fill="#000000" fill-opacity="1.000000"/>
	<rect id="矩形" x="5.000000" y="17.000000" width="10.000000" height="1.000000" fill="#000000"/>
</svg>
