<svg width="20.000000" height="20.000000" viewBox="0 0 20 20" fill="none" xmlns="http://www.w3.org/2000/svg" xmlns:xlink="http://www.w3.org/1999/xlink">
	<path id="形状结合" d="M15 2C15.5523 2 16 2.44771 16 3L16 17C16 17.5523 15.5523 18 15 18L5 18C4.44772 18 4 17.5523 4 17L4 3C4 2.44771 4.44772 2 5 2L15 2ZM15 3L5 3L5 17L15 17L15 3ZM12 5L6 5L6 6L12 6L12 5ZM6 8L10 8L10 9L6 9L6 8ZM10.0428 13.7248L8.27512 11.9571L7.56802 12.6642L10.0429 15.1391L13.932 11.25L13.2249 10.5429L10.0428 13.7248Z" clip-rule="evenodd" fill-rule="evenodd" fill="#000000" fill-opacity="1.000000"/>
</svg>
