<svg width="20.000000" height="20.000000" viewBox="0 0 20 20" fill="none" xmlns="http://www.w3.org/2000/svg" xmlns:xlink="http://www.w3.org/1999/xlink">
	<path id="形状结合" d="M10.5 2L9.5 2L9.5 3.52747C7.25002 3.77618 5.5 5.68372 5.5 8L5.5 11C5.5 12.2991 5.04083 13.5236 4.10956 14.6876C3.84766 15.015 4.08073 15.5 4.5 15.5L7.5 15.5L7.50531 15.6644C7.58995 16.9684 8.67451 18 10 18C11.3807 18 12.5 16.8807 12.5 15.5L15.5 15.5C15.9193 15.5 16.1523 15.015 15.8904 14.6876C14.9592 13.5236 14.5 12.2991 14.5 11L14.5 8C14.5 5.68372 12.75 3.77618 10.5 3.52747L10.5 2ZM13.5 8C13.5 6.06702 11.933 4.5 10 4.5C8.067 4.5 6.5 6.06702 6.5 8L6.5 11C6.5 12.2274 6.15385 13.3959 5.467 14.5L14.532 14.5C13.9033 13.4877 13.56 12.4216 13.5072 11.3056L13.5 11L13.5 8ZM11.4931 15.6445L11.5 15.5L8.5 15.5C8.5 16.3284 9.17157 17 10 17C10.7797 17 11.4204 16.4051 11.4931 15.6445Z" clip-rule="evenodd" fill-rule="evenodd" fill="#000000" fill-opacity="1.000000"/>
</svg>
