<svg width="20.000000" height="20.000000" viewBox="0 0 20 20" fill="none" xmlns="http://www.w3.org/2000/svg" xmlns:xlink="http://www.w3.org/1999/xlink">
	<path id="形状结合" d="M10.5 2L9.5 2L9.5 3.52747C7.25002 3.77618 5.5 5.68372 5.5 8L5.5 11C5.5 12.2991 5.04083 13.5236 4.10956 14.6876C3.84766 15.015 4.08073 15.5 4.5 15.5L15.5 15.5C15.9193 15.5 16.1523 15.015 15.8904 14.6876C14.9592 13.5236 14.5 12.2991 14.5 11L14.5 8C14.5 5.68372 12.75 3.77618 10.5 3.52747L10.5 2ZM10 18C8.97484 18 8.0938 17.3829 7.70801 16.5L12.292 16.5C11.9062 17.3829 11.0251 18 10 18Z" clip-rule="evenodd" fill-rule="evenodd" fill="#000000" fill-opacity="1.000000"/>
</svg>
