<svg width="20.000000" height="20.000000" viewBox="0 0 20 20" fill="none" xmlns="http://www.w3.org/2000/svg" xmlns:xlink="http://www.w3.org/1999/xlink">
	<path id="形状结合" d="M14 5L14 4C14 3.44771 13.5523 3 13 3L7 3C6.44772 3 6 3.44771 6 4L6 5L4 5C3.44772 5 3 5.44771 3 6L3 8L17 8L17 6C17 5.44771 16.5523 5 16 5L14 5ZM13 5L7 5L7 4L13 4L13 5ZM12 11L12 10L16 10L16 9L4 9L4 10L8 10L8 11L3 11L3 16C3 16.5523 3.44772 17 4 17L16 17C16.5523 17 17 16.5523 17 16L17 11L12 11ZM12 11L12 12L8 12L8 11L12 11Z" clip-rule="evenodd" fill-rule="evenodd" fill="#000000" fill-opacity="1.000000"/>
</svg>
