<svg width="20.000000" height="20.000000" viewBox="0 0 20 20" fill="none" xmlns="http://www.w3.org/2000/svg" xmlns:xlink="http://www.w3.org/1999/xlink">
	<path id="形状结合" d="M13 3C13.5523 3 14 3.44771 14 4L14 5L16 5C16.5523 5 17 5.44771 17 6L17 16C17 16.5523 16.5523 17 16 17L4 17C3.44772 17 3 16.5523 3 16L3 6C3 5.44771 3.44772 5 4 5L6 5L6 4C6 3.44771 6.44772 3 7 3L13 3ZM13 4L13 5L7 5L7 4L13 4ZM4 6L16 6L16 9L4 9L4 6ZM4 10L4 16L16 16L16 10L11 10L11 11L9 11L9 10L4 10Z" clip-rule="evenodd" fill-rule="evenodd" fill="#000000" fill-opacity="1.000000"/>
</svg>
