<svg width="20.000000" height="20.000000" viewBox="0 0 20 20" fill="none" xmlns="http://www.w3.org/2000/svg" xmlns:xlink="http://www.w3.org/1999/xlink">
	<path id="形状结合" d="M6 2L7 2L7 4L13.125 4L13.125 2L14.125 2L14.125 4L16 4C16.5523 4 17 4.44771 17 5L17 16C17 16.5523 16.5523 17 16 17L4 17C3.44772 17 3 16.5523 3 16L3 5C3 4.44771 3.44772 4 4 4L6 4L6 2ZM14.125 5L4 5L4 8L16 8L16 5L14.125 5ZM4 9L4 16L16 16L16 9L4 9Z" clip-rule="evenodd" fill-rule="evenodd" fill="#000000" fill-opacity="1.000000"/>
</svg>
