<svg width="20.000000" height="20.000000" viewBox="0 0 20 20" fill="none" xmlns="http://www.w3.org/2000/svg" xmlns:xlink="http://www.w3.org/1999/xlink">
	<path id="形状结合" d="M18 10C18 5.58173 14.4183 2 10 2C5.58173 2 2 5.58173 2 10C2 14.4183 5.58173 18 10 18C14.4183 18 18 14.4183 18 10ZM3 10C3 6.134 6.134 3 10 3C13.866 3 17 6.134 17 10C17 13.866 13.866 17 10 17C6.134 17 3 13.866 3 10ZM9.18413 9L7.22905 6L8.42264 6L9.99316 8.41L11.574 6L12.77 6L10.8028 9L12.5 9L12.5 10L10.5022 10L10.5023 11L12.5 11L12.5 12L10.5023 12L10.5025 14L9.5025 14L9.50235 12L7.5 12L7.5 11L9.50227 11L9.5022 10L7.5 10L7.5 9L9.18413 9Z" clip-rule="evenodd" fill-rule="evenodd" fill="#000000" fill-opacity="1.000000"/>
</svg>
