<svg width="20.000000" height="20.000000" viewBox="0 0 20 20" fill="none" xmlns="http://www.w3.org/2000/svg" xmlns:xlink="http://www.w3.org/1999/xlink">
	<path id="形状结合" d="M5 3L15 3C15.5523 3 16 3.44771 16 4L16 16.9463C16 17.742 15.1158 18.219 14.4508 17.782L12.5 16.5L10.5623 17.8176C10.2229 18.0484 9.77705 18.0484 9.43768 17.8176L7.5 16.5L5.54918 17.782C4.8842 18.219 4 17.742 4 16.9463L4 4C4 3.44771 4.44771 3 5 3ZM9.18413 9L7.22905 6L8.42264 6L9.99316 8.41L11.574 6L12.77 6L10.8028 9L12.5 9L12.5 10L10.5022 10L10.5023 11L12.5 11L12.5 12L10.5023 12L10.5025 14L9.5025 14L9.50235 12L7.5 12L7.5 11L9.50227 11L9.5022 10L7.5 10L7.5 9L9.18413 9Z" clip-rule="evenodd" fill-rule="evenodd" fill="#000000" fill-opacity="1.000000"/>
</svg>
