<svg width="20.000000" height="20.000000" viewBox="0 0 20 20" fill="none" xmlns="http://www.w3.org/2000/svg" xmlns:xlink="http://www.w3.org/1999/xlink">
	<path id="形状结合" d="M17 4C17 3.44772 16.5523 3 16 3L4 3C3.44772 3 3 3.44772 3 4L3 13C3 13.5523 3.44772 14 4 14L9.5 14L9.5 16L6 16L6 17L14 17L14 16L10.5 16L10.5 14L16 14C16.5523 14 17 13.5523 17 13L17 4ZM4 4L16 4L16 13L4 13L4 4ZM9.63501 8.70001L8.03302 8.70001L8.03302 7.89999L9.39404 7.89999L7.89978 5.5L8.84216 5.5L10.0299 7.40765L11.2098 5.5L12.1504 5.5L10.6661 7.89999L12.033 7.89999L12.033 8.70001L10.4351 8.70001L10.4351 9.5L12.033 9.5L12.033 10.3L10.4351 10.3L10.4351 11.9L9.63501 11.9L9.63501 10.3L8.03302 10.3L8.03302 9.5L9.63501 9.5L9.63501 8.70001Z" clip-rule="evenodd" fill-rule="evenodd" fill="#000000" fill-opacity="1.000000"/>
</svg>
