<svg width="20.000000" height="20.000000" viewBox="0 0 20 20" fill="none" xmlns="http://www.w3.org/2000/svg" xmlns:xlink="http://www.w3.org/1999/xlink">
	<path id="形状结合" d="M12 3C12.5523 3 13 3.44772 13 4L13 7C13 7.55228 12.5523 8 12 8L10.5 8L10.5 9.5L13 9.5C13.7797 9.5 14.4204 10.0949 14.4931 10.8555L14.5 11L14.5 12L16 12C16.5523 12 17 12.4477 17 13L17 16C17 16.5523 16.5523 17 16 17L12 17C11.4477 17 11 16.5523 11 16L11 13C11 12.4477 11.4477 12 12 12L13.5 12L13.5 11C13.5 10.7545 13.3231 10.5504 13.0899 10.5081L13 10.5L7 10.5C6.75455 10.5 6.55038 10.6769 6.50806 10.9101L6.5 11L6.5 12L8 12C8.55228 12 9 12.4477 9 13L9 16C9 16.5523 8.55228 17 8 17L4 17C3.44772 17 3 16.5523 3 16L3 13C3 12.4477 3.44772 12 4 12L5.5 12L5.5 11C5.5 10.2203 6.09488 9.57956 6.85553 9.50687L7 9.5L9.5 9.5L9.5 8L8 8C7.44772 8 7 7.55228 7 7L7 4C7 3.44772 7.44772 3 8 3L12 3ZM5.5 13L4 13L4 16L8 16L8 13L5.5 13ZM13.5 13L12 13L12 16L16 16L16 13L13.5 13ZM12 7L8 7L8 4L12 4L12 7Z" clip-rule="evenodd" fill-rule="evenodd" fill="#000000" fill-opacity="1.000000"/>
</svg>
