<svg width="20.000000" height="20.000000" viewBox="0 0 20 20" fill="none" xmlns="http://www.w3.org/2000/svg" xmlns:xlink="http://www.w3.org/1999/xlink">
	<path id="形状结合" d="M16 3C16.5523 3 17 3.44771 17 4L17 16C17 16.5523 16.5523 17 16 17L14 17C13.4477 17 13 16.5523 13 16L13 4C13 3.44771 13.4477 3 14 3L16 3ZM16 4L14 4L14 16L16 16L16 4ZM12 8C12 7.44771 11.5523 7 11 7L9 7C8.44772 7 8 7.44771 8 8L8 16C8 16.5523 8.44772 17 9 17L11 17C11.5523 17 12 16.5523 12 16L12 8ZM9 8L11 8L11 16L9 16L9 8ZM6 11C6.55228 11 7 11.4477 7 12L7 16C7 16.5523 6.55228 17 6 17L4 17C3.44772 17 3 16.5523 3 16L3 12C3 11.4477 3.44772 11 4 11L6 11ZM6 12L4 12L4 16L6 16L6 12Z" clip-rule="evenodd" fill-rule="evenodd" fill="#000000" fill-opacity="1.000000"/>
</svg>
