<svg width="20.000000" height="20.000000" viewBox="0 0 20 20" fill="none" xmlns="http://www.w3.org/2000/svg" xmlns:xlink="http://www.w3.org/1999/xlink">
	<path id="形状结合" d="M16 3L14 3C13.4477 3 13 3.44771 13 4L13 16C13 16.5523 13.4477 17 14 17L16 17C16.5523 17 17 16.5523 17 16L17 4C17 3.44771 16.5523 3 16 3ZM9 7L11 7C11.5523 7 12 7.44771 12 8L12 16C12 16.5523 11.5523 17 11 17L9 17C8.44772 17 8 16.5523 8 16L8 8C8 7.44771 8.44772 7 9 7ZM4 11L6 11C6.55228 11 7 11.4477 7 12L7 16C7 16.5523 6.55228 17 6 17L4 17C3.44772 17 3 16.5523 3 16L3 12C3 11.4477 3.44772 11 4 11Z" clip-rule="evenodd" fill-rule="evenodd" fill="#000000" fill-opacity="1.000000"/>
</svg>
