<svg width="20.000000" height="20.000000" viewBox="0 0 20 20" fill="none" xmlns="http://www.w3.org/2000/svg" xmlns:xlink="http://www.w3.org/1999/xlink">
	<path id="形状结合" d="M6 2L7 2L7 4L13.125 4L13.125 2L14.125 2L14.125 4L16 4C16.5523 4 17 4.44771 17 5L17 16C17 16.5523 16.5523 17 16 17L4 17C3.44769 17 3 16.5523 3 16L3 5C3 4.44771 3.44769 4 4 4L6 4L6 2ZM14.125 5L4 5L4 7L16 7L16 5L14.125 5ZM4 8L4 16L16 16L16 8L4 8ZM7.70709 11.182L9.47455 12.9494L12.6569 9.76776L13.364 10.4749L9.47485 14.364L7 11.8891L7.70709 11.182Z" clip-rule="evenodd" fill-rule="evenodd" fill="#000000" fill-opacity="1.000000"/>
</svg>
