<svg width="20.000000" height="20.000000" viewBox="0 0 20 20" fill="none" xmlns="http://www.w3.org/2000/svg" xmlns:xlink="http://www.w3.org/1999/xlink">
	<path id="路径" d="M16.1867 5.76627L17.0707 6.23376C16.6019 7.12009 15.9792 7.89749 15.2434 8.53732L17.3536 10.6465L16.6464 11.3536L14.4419 9.14996C13.724 9.63022 12.9282 9.99442 12.083 10.2226L12.9698 13.3241L12.0082 13.5988L11.1007 10.4225C10.7379 10.4729 10.3684 10.4988 9.99433 10.4988C9.6237 10.4988 9.25757 10.4734 8.89789 10.4239L7.99177 13.5988L7.03024 13.3241L7.91626 10.2255C7.06941 9.99811 6.27203 9.63425 5.55274 9.15396L3.35355 11.3536L2.64645 10.6465L4.75089 8.54218C4.08233 7.96194 3.50694 7.26828 3.05527 6.4826L2.918 6.23376L3.802 5.76627C5.00644 8.04382 7.37133 9.49881 9.99433 9.49881C12.6173 9.49881 14.9822 8.04382 16.1867 5.76627Z" fill-rule="evenodd" fill="#000000"/>
</svg>
