<svg width="20.000000" height="20.000000" viewBox="0 0 20 20" fill="none" xmlns="http://www.w3.org/2000/svg" xmlns:xlink="http://www.w3.org/1999/xlink">
	<path id="形状结合" d="M17 3C17 2.44772 16.5523 2 16 2L7 2C6.44769 2 6 2.44772 6 3L6 4L5 4C4.44769 4 4 4.44772 4 5L4 17C4 17.5523 4.44769 18 5 18L14 18C14.5523 18 15 17.5523 15 17L15 16L16 16C16.5523 16 17 15.5523 17 15L17 3ZM14 4L7 4L7 3L16 3L16 15L15 15L15 5C15 4.44772 14.5523 4 14 4ZM5 5L14 5L14 17L5 17L5 5ZM7 7.99802L12 7.99802L12 8.99802L7 8.99802L7 7.99802ZM12 10.5L7 10.5L7 11.5L12 11.5L12 10.5ZM10 13L7 13L7 14L10 14L10 13Z" clip-rule="evenodd" fill-rule="evenodd" fill="#000000" fill-opacity="1.000000"/>
</svg>
