<svg width="20.000000" height="20.000000" viewBox="0 0 20 20" fill="none" xmlns="http://www.w3.org/2000/svg" xmlns:xlink="http://www.w3.org/1999/xlink">
	<path id="形状结合" d="M13.5 3L4 3L4 4L5.5 4L5.5 5.87689L5.50497 6.08951C5.58578 7.81223 6.64374 9.32166 8.19644 10C6.64374 10.6783 5.58582 12.1878 5.50497 13.9105L5.5 14.1231L5.5 16L4 16L4 17L16 17L16 16L14.5 16L14.5 14.1231L14.495 13.9105C14.4142 12.1878 13.3563 10.6783 11.8036 10C13.3563 9.32166 14.4142 7.81223 14.495 6.08951L14.5 5.87689L14.5 4L16 4L16 3L13.5 3ZM13.5 4L6.5 4L6.5 5.87689C6.5 7.4187 7.50735 8.77054 8.96643 9.22086L9.15112 9.2724L10 9.48462L10.8489 9.2724L11.0336 9.22086C12.4926 8.77054 13.5 7.4187 13.5 5.87689L13.5 4ZM10 10.5154L9.15112 10.7276L8.96643 10.7791C7.50735 11.2295 6.5 12.5813 6.5 14.1231L6.5 16L13.5 16L13.5 14.1231C13.5 12.5813 12.4926 11.2295 11.0336 10.7791L10.8489 10.7276L10 10.5154Z" clip-rule="evenodd" fill-rule="evenodd" fill="#000000" fill-opacity="1.000000"/>
</svg>
