<svg width="20.000000" height="20.000000" viewBox="0 0 20 20" fill="none" xmlns="http://www.w3.org/2000/svg" xmlns:xlink="http://www.w3.org/1999/xlink">
	<path id="形状结合" d="M12 2C12 3.10356 11.1036 4 10 4C8.89642 4 8 3.10356 8 2L5 2C4.44769 2 4 2.44771 4 3L4 17C4 17.5523 4.44769 18 5 18L8 18C8 16.8964 8.89642 16 10 16C11.1036 16 12 16.8964 12 18L15 18C15.5523 18 16 17.5523 16 17L16 3C16 2.44771 15.5523 2 15 2L12 2ZM7 7L5 7L5 8L7 8L7 7ZM12 7L12 8L8 8L8 7L12 7ZM15 7L13 7L13 8L15 8L15 7Z" clip-rule="evenodd" fill-rule="evenodd" fill="#000000" fill-opacity="1.000000"/>
</svg>
