<svg width="20.000000" height="20.000000" viewBox="0 0 20 20" fill="none" xmlns="http://www.w3.org/2000/svg" xmlns:xlink="http://www.w3.org/1999/xlink">
	<path id="形状结合" d="M8 2C8 3.10457 8.89545 4 10 4C11.1046 4 12 3.10457 12 2L15 2C15.5523 2 16 2.44771 16 3L16 17C16 17.5523 15.5523 18 15 18L12 18C12 16.8954 11.1046 16 10 16C8.89545 16 8 16.8954 8 18L5 18C4.44769 18 4 17.5523 4 17L4 3C4 2.44771 4.44769 2 5 2L8 2ZM12.8251 3.01178L12.829 3L15 3L15 7L13 7L13 8L15 8L15 17L12.829 17L12.7577 16.8169C12.2986 15.7483 11.2367 15 10 15L9.82373 15.0051C8.59888 15.0761 7.57117 15.8819 7.17487 16.9882L7.16998 17L5 17L5 8L7 8L7 7L5 7L5 3L7.16998 3L7.24231 3.18309C7.70135 4.25166 8.76331 5 10 5C11.3018 5 12.41 4.17081 12.8251 3.01178ZM12 7L12 8L8 8L8 7L12 7Z" clip-rule="evenodd" fill-rule="evenodd" fill="#000000" fill-opacity="1.000000"/>
</svg>
