<svg width="20.000000" height="20.000000" viewBox="0 0 20 20" fill="none" xmlns="http://www.w3.org/2000/svg" xmlns:xlink="http://www.w3.org/1999/xlink">
	<path id="形状结合" d="M6.52145 4L3 4C2.44772 4 2 4.44771 2 5L2 15.8806C2 15.9465 2.05347 16 2.11942 16L7.26395 16C8.09021 16 8.87372 16.2815 9.5 16.7737L9.5 17L10.5 17L10.5 16.9999C11.3557 16.3583 12.4056 16 13.5 16L17 16C17.5523 16 18 15.5523 18 15L18 5C18 4.44771 17.5523 4 17 4L13.4835 4C12.1707 4 10.9223 4.51897 10.0005 5.42581C9.08011 4.51903 7.83295 4 6.52145 4ZM8 8L5 8L5 9L8 9L8 8ZM15 8L12 8L12 9L15 9L15 8ZM5 11L8 11L8 12L5 12L5 11ZM15 11L12 11L12 12L15 12L15 11Z" clip-rule="evenodd" fill-rule="evenodd" fill="#000000" fill-opacity="1.000000"/>
</svg>
