<svg width="20.000000" height="20.000000" viewBox="0 0 20 20" fill="none" xmlns="http://www.w3.org/2000/svg" xmlns:xlink="http://www.w3.org/1999/xlink">
	<path id="形状结合" d="M7.75 4C8.5369 4 9.27786 4.37048 9.75 5L10 5.33333L10.25 5C10.7221 4.37048 11.4631 4 12.25 4L17 4C17.5523 4 18 4.44771 18 5L18 15C18 15.5523 17.5523 16 17 16L12.5 16C11.7553 16 11.0449 16.2765 10.5 16.7639L10.5 17L9.5 17L9.5 16.7737C8.87373 16.2815 8.09021 16 7.26393 16L3 16C2.44771 16 2 15.5523 2 15L2 5C2 4.44771 2.44771 4 3 4L7.75 4ZM9.5 15.579L9.5 6.33333L8.95 5.60001C8.66672 5.22229 8.22214 5 7.75 5L3 5L3 15L7.26393 15C8.02444 15 8.75658 15.1868 9.40555 15.5266L9.5 15.579ZM10.5 15.536L10.7369 15.4095C11.2784 15.1436 11.8803 15 12.5 15L17 15L17 5L12.25 5C11.7779 5 11.3333 5.22229 11.05 5.60001L10.5 6.33333L10.5 15.536ZM5 8L8 8L8 9L5 9L5 8ZM12 8L15 8L15 9L12 9L12 8ZM8 11L5 11L5 12L8 12L8 11ZM12 11L15 11L15 12L12 12L12 11Z" clip-rule="evenodd" fill-rule="evenodd" fill="#000000" fill-opacity="1.000000"/>
</svg>
