<svg width="20.000000" height="20.000000" viewBox="0 0 20 20" fill="none" xmlns="http://www.w3.org/2000/svg" xmlns:xlink="http://www.w3.org/1999/xlink">
	<path id="形状结合" d="M14 6C14 3.79086 12.2091 2 10 2C7.79086 2 6 3.79086 6 6C6 8.20914 7.79086 10 10 10C12.2091 10 14 8.20914 14 6ZM7 6C7 4.34314 8.34314 3 10 3C11.6569 3 13 4.34314 13 6C13 7.65686 11.6569 9 10 9C8.34314 9 7 7.65686 7 6ZM8 11L12 11C14.7614 11 17 13.2386 17 16L17 17L3 17L3 16C3 13.2386 5.23857 11 8 11ZM12 12L12.1996 12.0049C14.316 12.1089 16 13.8578 16 16L4 16C4 13.7909 5.79086 12 8 12L12 12Z" clip-rule="evenodd" fill-rule="evenodd" fill="#000000" fill-opacity="1.000000"/>
</svg>
