<svg width="20.000000" height="20.000000" viewBox="0 0 20 20" fill="none" xmlns="http://www.w3.org/2000/svg" xmlns:xlink="http://www.w3.org/1999/xlink">
	<path id="形状结合" d="M7 3L9 5L17 5C17.5523 5 18 5.44772 18 6L18 16C18 16.5523 17.5523 17 17 17L3 17C2.44772 17 2 16.5523 2 16L2 4C2 3.44772 2.44772 3 3 3L7 3ZM6.58499 4L8.58578 6L17 6L17 16L3 16L3 4L6.58499 4ZM8.07199 13.8L10.2785 8L11.0162 8L8.81601 13.8L8.07199 13.8ZM7.44 13.008L7.44 12.24L4.39999 10.936L7.44 9.63199L7.44 8.86401L3.39999 10.616L3.39999 11.248L7.44 13.008ZM12.24 13.008L16.28 11.248L16.28 10.616L12.24 8.86401L12.24 9.63199L15.28 10.936L12.24 12.24L12.24 13.008Z" clip-rule="evenodd" fill-rule="evenodd" fill="#000000" fill-opacity="1.000000"/>
</svg>
