<svg width="20.000000" height="20.000000" viewBox="0 0 20 20" fill="none" xmlns="http://www.w3.org/2000/svg" xmlns:xlink="http://www.w3.org/1999/xlink">
	<path id="形状结合" d="M16 2C16.5523 2 17 2.47757 17 3.06668L17 16.9333C17 17.5224 16.5523 18 16 18L6 18C5.44772 18 5 17.5224 5 16.9333L5 14L3 14C2.44772 14 2 13.5523 2 13L2 7C2 6.44772 2.44772 6 3 6L5 6L5 3.06668C5 2.47757 5.44772 2 6 2L16 2ZM6 17L6 14L8 14C8.55228 14 9 13.5523 9 13L9 7C9 6.44772 8.55228 6 8 6L6 6L6 3L16 3L16 17L6 17ZM14 6.5L10 6.5L10 7.5L14 7.5L14 6.5ZM3.495 8L4.56 8L5.39651 9.2897L6.23999 8L7.29901 8L5.9025 9.94601L7.39999 11.9929L6.32751 11.9929L5.39651 10.6019L4.4725 11.9929L3.39999 11.9929L4.89099 9.94601L3.495 8ZM10 9.5L14 9.5L14 10.5L10 10.5L10 9.5ZM14 12.5L10 12.5L10 13.5L14 13.5L14 12.5Z" clip-rule="evenodd" fill-rule="evenodd" fill="#000000" fill-opacity="1.000000"/>
</svg>
