<svg width="20.000000" height="20.000000" viewBox="0 0 20 20" fill="none" xmlns="http://www.w3.org/2000/svg" xmlns:xlink="http://www.w3.org/1999/xlink">
	<path id="形状结合" d="M10.499 11.642L10.5 3L9.5 3L9.499 11.742L6.62868 8.87132L5.92157 9.57843L9.94975 13.6066L14.0282 9.52817L13.3211 8.82108L10.499 11.642ZM4 10.5L4 15.5C4 15.7455 4.17687 15.9496 4.41013 15.9919L4.5 16L15.5 16C15.7455 16 15.9496 15.8231 15.9919 15.5899L16 15.5L16 10.5L17 10.5L17 15.5C17 16.2797 16.4051 16.9204 15.6445 16.9931L15.5 17L4.5 17C3.72031 17 3.07955 16.4051 3.00687 15.6445L3 15.5L3 10.5L4 10.5Z" clip-rule="evenodd" fill-rule="evenodd" fill="#000000" fill-opacity="1.000000"/>
</svg>
