<svg width="20.000000" height="20.000000" viewBox="0 0 20 20" fill="none" xmlns="http://www.w3.org/2000/svg" xmlns:xlink="http://www.w3.org/1999/xlink">
	<path id="形状结合" d="M13.5962 3.48959L15.0104 4.90381C15.4009 5.29433 15.4009 5.92751 15.0104 6.31802L14.0178 7.31067L11.1893 4.48224L12.182 3.48959C12.5725 3.09908 13.2057 3.09908 13.5962 3.48959ZM10.4822 5.18935L5.04747 10.6241C4.89001 10.7816 4.78961 10.9871 4.76218 11.2081L4.48282 13.4594C4.44271 13.7826 4.71738 14.0573 5.04059 14.0172L7.29193 13.7378C7.51292 13.7104 7.71843 13.61 7.87589 13.4525L13.3107 8.01776L10.4822 5.18935ZM16 16L16 15L4 15L4 16L16 16Z" clip-rule="evenodd" fill-rule="evenodd" fill="#000000" fill-opacity="1.000000"/>
</svg>
