<svg width="20.000000" height="20.000000" viewBox="0 0 20 20" fill="none" xmlns="http://www.w3.org/2000/svg" xmlns:xlink="http://www.w3.org/1999/xlink">
	<path id="形状结合" d="M12.0712 3.4437C12.4617 3.05318 13.0948 3.05318 13.4854 3.4437L14.8996 4.85791C15.2901 5.24843 15.2901 5.88161 14.8996 6.27213L7.76508 13.4066C7.60761 13.5641 7.4021 13.6645 7.18111 13.6919L4.92977 13.9713C4.65573 14.0053 4.40601 13.8107 4.372 13.5367C4.36693 13.4958 4.36693 13.4544 4.372 13.4135L4.65136 11.1622C4.67879 10.9412 4.77919 10.7357 4.93665 10.5782L12.0712 3.4437ZM12.7783 4.1508L14.1925 5.56502L13.2323 6.52519L11.8181 5.11099L12.7783 4.1508ZM11.111 5.81808L5.64375 11.2853L5.44337 12.8991L7.05797 12.6995L12.5252 7.2323L11.111 5.81808ZM16 15L4 15L4 16L16 16L16 15Z" clip-rule="evenodd" fill-rule="evenodd" fill="#000000" fill-opacity="1.000000"/>
</svg>
