<svg width="20.000000" height="20.000000" viewBox="0 0 20 20" fill="none" xmlns="http://www.w3.org/2000/svg" xmlns:xlink="http://www.w3.org/1999/xlink">
	<path id="形状结合" d="M15 3C15.5523 3 16 3.44772 16 4L16 11C16.5523 11 17 11.4477 17 12L17 16C17 16.5523 16.5523 17 16 17L4 17C3.44771 17 3 16.5523 3 16L3 12C3 11.4477 3.44771 11 4 11L4 5C4 4.44772 4.44771 4 5 4L7 4C7 3.44772 7.44771 3 8 3L15 3ZM8 11L15 11L15 4L8 4L8 11ZM7 11L5 11L5 5L7 5L7 11ZM13.5 6.5L13.5 5.5L9.5 5.5L9.5 6.5L13.5 6.5ZM13.5 7.5L13.5 8.5L9.5 8.5L9.5 7.5L13.5 7.5ZM4 12L16 12L16 16L4 16L4 12ZM12 14.5L12 13.5L8 13.5L8 14.5L12 14.5Z" clip-rule="evenodd" fill-rule="evenodd" fill="#000000" fill-opacity="1.000000"/>
</svg>
