<svg width="20.000000" height="20.000000" viewBox="0 0 20 20" fill="none" xmlns="http://www.w3.org/2000/svg" xmlns:xlink="http://www.w3.org/1999/xlink">
	<path id="形状结合" d="M7 4L7 10.5L16 10.5L16 4C16 3.44772 15.5523 3 15 3L8 3C7.44771 3 7 3.44772 7 4ZM6 4L6 10.5L4.13379 10.5C4.04869 10.3529 4 10.1821 4 10L4 5C4 4.44772 4.44771 4 5 4L6 4ZM3 11.5L3 16C3 16.5523 3.44771 17 4 17L16 17C16.5523 17 17 16.5523 17 16L17 11.5L3 11.5ZM13.5 6.5L13.5 5.5L9.5 5.5L9.5 6.5L13.5 6.5ZM13.5 8.5L13.5 7.5L9.5 7.5L9.5 8.5L13.5 8.5ZM12 14.5L12 13.5L8 13.5L8 14.5L12 14.5Z" clip-rule="evenodd" fill-rule="evenodd" fill="#000000" fill-opacity="1.000000"/>
</svg>
