<svg width="20.000000" height="20.000000" viewBox="0 0 20 20" fill="none" xmlns="http://www.w3.org/2000/svg" xmlns:xlink="http://www.w3.org/1999/xlink">
	<path id="形状结合" d="M18 10C18 5.58173 14.4183 2 10 2C5.58173 2 2 5.58173 2 10C2 14.4183 5.58173 18 10 18C14.4183 18 18 14.4183 18 10ZM3 10C3 6.134 6.134 3 10 3C13.866 3 17 6.134 17 10C17 13.866 13.866 17 10 17C6.134 17 3 13.866 3 10ZM14.0711 7L13.364 6.29291L10.182 9.47501L7 6.29291L6.29289 7L9.47501 10.182L6.29289 13.364L7 14.0711L10.182 10.889L13.364 14.0711L14.0711 13.364L10.889 10.182L14.0711 7Z" clip-rule="evenodd" fill-rule="evenodd" fill="#000000" fill-opacity="1.000000"/>
</svg>
