<svg width="20.000000" height="20.000000" viewBox="0 0 20 20" fill="none" xmlns="http://www.w3.org/2000/svg" xmlns:xlink="http://www.w3.org/1999/xlink">
	<path id="形状结合" d="M13 3L12 2L8 2L7 3L8.5 5L11.5 5L13 3ZM8.414 3L11.585 3L11.679 3.09399L11 4L9 4L8.31998 3.09399L8.414 3ZM13.8325 13.9305L11.5 6L8.5 6L6.16748 13.9305C6.06424 14.2816 6.16098 14.661 6.41974 14.9198L9.29288 17.7929C9.68341 18.1834 10.3166 18.1834 10.7071 17.7929L13.5802 14.9198C13.839 14.661 13.9357 14.2816 13.8325 13.9305ZM10.751 7L9.24799 7L7.12686 14.2127L10 17.0858L12.8731 14.2127L10.751 7Z" clip-rule="evenodd" fill-rule="evenodd" fill="#000000" fill-opacity="1.000000"/>
</svg>
