<svg width="20.000000" height="20.000000" viewBox="0 0 20 20" fill="none" xmlns="http://www.w3.org/2000/svg" xmlns:xlink="http://www.w3.org/1999/xlink">
	<path id="形状结合" d="M12.2929 2.29291C12.1054 2.10535 11.851 2 11.5858 2L5 2C4.44772 2 4 2.44772 4 3L4 17C4 17.5523 4.44772 18 5 18L15 18C15.5523 18 16 17.5523 16 17L16 14L15 14L15 17L5 17L5 3L11.5858 3L15 6.41422L15 8L16 8L16 6.41422C16 6.14899 15.8946 5.89465 15.7071 5.70709L12.2929 2.29291ZM16.2604 10.982L13.0784 14.164L12.3713 13.4568L14.3277 11.5L9 11.5L9 10.5L14.3642 10.5L12.3713 8.50711L13.0784 7.79999L16.2604 10.982Z" clip-rule="evenodd" fill-rule="evenodd" fill="#000000" fill-opacity="1.000000"/>
</svg>
