<svg width="20.000000" height="20.000000" viewBox="0 0 20 20" fill="none" xmlns="http://www.w3.org/2000/svg" xmlns:xlink="http://www.w3.org/1999/xlink">
	<path id="形状结合" d="M18 5C18 4.44772 17.5523 4 17 4L3 4C2.44772 4 2 4.44772 2 5L2 16C2 16.2164 2.07019 16.4269 2.20001 16.6C2.53137 17.0418 3.15817 17.1314 3.60001 16.8L6 15L17 15C17.5523 15 18 14.5523 18 14L18 5ZM17 5L3 5L3 16L5.39999 14.2C5.53848 14.0961 5.70093 14.0305 5.87112 14.0083L6 14L17 14L17 5ZM6 7L14 7L14 8L6 8L6 7ZM11 10L6 10L6 11L11 11L11 10Z" clip-rule="evenodd" fill-rule="evenodd" fill="#000000" fill-opacity="1.000000"/>
</svg>
