<svg width="20.000000" height="20.000000" viewBox="0 0 20 20" fill="none" xmlns="http://www.w3.org/2000/svg" xmlns:xlink="http://www.w3.org/1999/xlink">
	<path id="矩形" d="M15.3697 3L4.63028 3C4.38151 3 4.14167 3.09271 3.9576 3.26007C3.54895 3.63156 3.51883 4.26401 3.89034 4.67267L7.86997 9.05026C7.95364 9.1423 8 9.26224 8 9.3866L8 14.9648C8 15.4663 8.25065 15.9347 8.66795 16.2129L10.4453 17.3978C10.6096 17.5073 10.8026 17.5657 11 17.5657C11.5523 17.5657 12 17.118 12 16.5657L12 9.3866C12 9.26224 12.0464 9.1423 12.13 9.05026L16.1097 4.67267C16.277 4.48859 16.3697 4.24878 16.3697 4C16.3697 3.44772 15.922 3 15.3697 3ZM15.368 4L4.63028 4L8.60991 8.37759C8.86092 8.65372 9 9.01346 9 9.3866L9 14.9648C9 15.132 9.08355 15.2881 9.22265 15.3808L11 16.5657L11 9.3866C11 9.01346 11.1391 8.65372 11.3901 8.37759L15.368 4Z" clip-rule="evenodd" fill-rule="evenodd" fill="#000000" fill-opacity="1.000000"/>
</svg>
