<svg width="20.000000" height="20.000000" viewBox="0 0 20 20" fill="none" xmlns="http://www.w3.org/2000/svg" xmlns:xlink="http://www.w3.org/1999/xlink">
	<path id="形状结合" d="M16 3L4 3L4 4L16 4L16 3ZM16 5C16.5523 5 17 5.44771 17 6L17 15C17 15.5523 16.5523 16 16 16L4 16C3.44772 16 3 15.5523 3 15L3 6C3 5.44771 3.44772 5 4 5L16 5ZM16 6L4 6L4 15L16 15L16 6ZM7.89975 7.5L9.39404 9.89999L8.03299 9.89999L8.03299 10.7L9.63501 10.7L9.63501 11.5L8.03299 11.5L8.03299 12.3L9.63501 12.3L9.63501 13.9L10.435 13.9L10.435 12.3L12.033 12.3L12.033 11.5L10.435 11.5L10.435 10.7L12.033 10.7L12.033 9.89999L10.666 9.89999L12.1504 7.5L11.2097 7.5L10.0299 9.40764L8.84213 7.5L7.89975 7.5Z" clip-rule="evenodd" fill-rule="evenodd" fill="#000000" fill-opacity="1.000000"/>
</svg>
