<svg width="20.000000" height="20.000000" viewBox="0 0 20 20" fill="none" xmlns="http://www.w3.org/2000/svg" xmlns:xlink="http://www.w3.org/1999/xlink">
	<path id="形状结合" d="M13.5559 3.96918C12.5138 3.35336 11.2982 3 10 3C6.134 3 3 6.134 3 10C3 11.2982 3.35336 12.5138 3.96918 13.5559L4.61121 12.9139C4.14163 12.0474 3.875 11.0548 3.875 10C3.875 6.61725 6.61725 3.875 10 3.875C11.0548 3.875 12.0474 4.14163 12.9139 4.61121L13.5559 3.96918ZM16.0308 6.44406L15.3888 7.08609C15.8584 7.95264 16.125 8.94516 16.125 10C16.125 13.3828 13.3828 16.125 10 16.125C8.94516 16.125 7.95264 15.8584 7.08609 15.3888L6.44406 16.0308C7.48621 16.6466 8.70184 17 10 17C13.866 17 17 13.866 17 10C17 8.70184 16.6466 7.48621 16.0308 6.44406ZM10 7C11.6569 7 13 8.34314 13 10C13 11.6569 11.6569 13 10 13C8.34314 13 7 11.6569 7 10C7 8.34314 8.34314 7 10 7ZM10 8C8.89542 8 8 8.89542 8 10C8 11.1046 8.89542 12 10 12C11.1046 12 12 11.1046 12 10C12 8.89542 11.1046 8 10 8Z" clip-rule="evenodd" fill-rule="evenodd" fill="#000000" fill-opacity="1.000000"/>
</svg>
