<svg width="20.000000" height="20.000000" viewBox="0 0 20 20" fill="none" xmlns="http://www.w3.org/2000/svg" xmlns:xlink="http://www.w3.org/1999/xlink">
	<path id="形状结合" d="M11.0635 3.51434C10.8871 3.1969 10.5526 3 10.1894 3L4 3C3.44769 3 3 3.44772 3 4L3 16C3 16.5523 3.44769 17 4 17L16 17C16.5523 17 17 16.5523 17 16L17 7C17 6.44772 16.5523 6 16 6L12.4445 6L11.0635 3.51434ZM13 7L4 7L4 16L16 16L16 7L13 7ZM11.3 6L10.1894 4L4 4L4 6L11.3 6Z" clip-rule="evenodd" fill-rule="evenodd" fill="#000000" fill-opacity="1.000000"/>
</svg>
