<svg width="20.000000" height="20.000000" viewBox="0 0 20 20" fill="none" xmlns="http://www.w3.org/2000/svg" xmlns:xlink="http://www.w3.org/1999/xlink">
	<path id="形状结合" d="M16.9497 3.70703L16.2426 2.99994L13 6.24258L13 3.00003L12 3.00003L12 6.85718L12.0067 6.98169C12.0688 7.55429 12.5538 8.00003 13.1429 8.00003L17 8.00003L17 7.00003L13.6568 7.00003L16.9497 3.70703ZM3.00671 4.01834C3.06876 3.44574 3.55375 3.00003 4.14286 3.00003L8 3.00003L8 4.00003L4.14286 4.00003L4.0977 4.00729C4.04093 4.02621 4 4.07977 4 4.14288L4 8.00003L3 8.00003L3 4.14288L3.00671 4.01834ZM6.85714 12C7.44625 12 7.93125 12.4457 7.99329 13.0183L8 13.1429L8 17L7 17L7 13.6568L3.70711 16.9497L3 16.2426L6.24256 13L3 13L3 12L6.85714 12ZM16.9933 15.9817C16.9312 16.5543 16.4462 17 15.8571 17L12 17L12 16L15.8571 16L15.9023 15.9927C15.9591 15.9738 16 15.9203 16 15.8572L16 12L17 12L17 15.8572L16.9933 15.9817Z" clip-rule="evenodd" fill-rule="evenodd" fill="#000000" fill-opacity="1.000000"/>
</svg>
