<svg width="20.000000" height="20.000000" viewBox="0 0 20 20" fill="none" xmlns="http://www.w3.org/2000/svg" xmlns:xlink="http://www.w3.org/1999/xlink">
	<path id="形状结合" d="M13.1932 2C14.3982 2 15.375 2.89543 15.375 4C15.375 4.36429 15.2687 4.70583 15.0831 5L17 5C17.5523 5 18 5.44771 18 6L18 8C18 8.55229 17.5523 9 17 9L10.5 9L10.5 5L9.5 5L9.5 9L3 9C2.44769 9 2 8.55229 2 8L2 6C2 5.44771 2.44769 5 3 5L4.66687 5C4.48126 4.70583 4.375 4.36429 4.375 4C4.375 2.89543 5.35181 2 6.55682 2C8.12201 2 9.18817 2.91493 9.75531 4.30722L9.875 4.625L9.92047 4.5C10.4422 3.06522 11.463 2.08791 12.9828 2.00563L13.1932 2ZM9.5 10L3 10L3 16C3 16.5523 3.44769 17 4 17L9.5 17L9.5 10ZM10.5 17L16 17C16.5523 17 17 16.5523 17 16L17 10L10.5 10L10.5 17ZM6.55682 5L8.94702 5L8.88977 4.84174C8.448 3.62685 7.66644 3 6.55682 3C5.88562 3 5.375 3.46808 5.375 4C5.375 4.49646 5.81982 4.9373 6.4248 4.99388L6.55682 5ZM13.1795 5L10.802 5L10.9379 4.64276C11.369 3.61127 12.0748 3.05624 13.0369 3.00417L13.1932 3L13.3252 3.00612C13.9302 3.0627 14.375 3.50354 14.375 4C14.375 4.50462 13.9139 4.95634 13.2844 4.99707L13.1795 5Z" clip-rule="evenodd" fill-rule="evenodd" fill="#000000" fill-opacity="1.000000"/>
</svg>
