<svg width="20.000000" height="20.000000" viewBox="0 0 20 20" fill="none" xmlns="http://www.w3.org/2000/svg" xmlns:xlink="http://www.w3.org/1999/xlink">
	<path id="形状结合" d="M15.375 4C15.375 2.89543 14.3982 2 13.1932 2C11.5568 2 10.4659 3 9.92047 4.5L9.875 4.625L9.82953 4.5C9.28412 3 8.19318 2 6.55682 2C5.35181 2 4.375 2.89543 4.375 4C4.375 4.36429 4.48126 4.70583 4.66687 5L3 5C2.44769 5 2 5.44771 2 6L2 9C2 9.55229 2.44769 10 3 10L3 16C3 16.5523 3.44769 17 4 17L16 17C16.5523 17 17 16.5523 17 16L17 10C17.5523 10 18 9.55229 18 9L18 6C18 5.44771 17.5523 5 17 5L15.0831 5C15.2687 4.70583 15.375 4.36429 15.375 4ZM6.55682 5L8.948 5L8.80829 4.63345C8.35492 3.55527 7.6012 3 6.55682 3C5.88562 3 5.375 3.46808 5.375 4L5.38171 4.10541C5.44379 4.59225 5.93036 5 6.55682 5ZM6.55682 6L3 6L3 9L9.5 9L9.5 6L6.55682 6ZM13.1932 5L10.802 5L10.9417 4.63345C11.3951 3.55527 12.1488 3 13.1932 3C13.8644 3 14.375 3.46808 14.375 4L14.3683 4.10541C14.3062 4.59225 13.8196 5 13.1932 5ZM10.5 9L10.5 6L17 6L17 9L10.5 9ZM9.5 16L9.5 10L4 10L4 16L9.5 16ZM16 16L10.5 16L10.5 10L16 10L16 16Z" clip-rule="evenodd" fill-rule="evenodd" fill="#000000" fill-opacity="1.000000"/>
</svg>
