<svg width="20.000000" height="20.000000" viewBox="0 0 20 20" fill="none" xmlns="http://www.w3.org/2000/svg" xmlns:xlink="http://www.w3.org/1999/xlink">
	<path id="形状结合" d="M13.4645 5C13.2219 3.30385 11.7632 2 10 2C8.23676 2 6.77805 3.30385 6.53543 5L5.42014 5C4.90002 5 4.46677 5.39867 4.42358 5.91696L3.59024 15.917C3.54166 16.5 4.00174 17 4.58679 17L15.4132 17C15.9982 17 16.4583 16.5 16.4097 15.917L15.5764 5.91696C15.5332 5.39867 15.0999 5 14.5799 5L13.4645 5ZM12.45 5L12.4175 4.86086C12.1486 3.84077 11.2511 3.07585 10.1644 3.00531L10 3C8.84021 3 7.86487 3.78976 7.58243 4.86086L7.54898 5L12.45 5Z" clip-rule="evenodd" fill-rule="evenodd" fill="#000000" fill-opacity="1.000000"/>
</svg>
