<svg width="20.000000" height="20.000000" viewBox="0 0 20 20" fill="none" xmlns="http://www.w3.org/2000/svg" xmlns:xlink="http://www.w3.org/1999/xlink">
	<path id="形状结合" d="M12 4C12.5523 4 13 4.44771 13 5L17 5C17.5523 5 18 5.44771 18 6L18 16C18 16.5523 17.5523 17 17 17L3 17C2.44772 17 2 16.5523 2 16L2 6C2 5.44771 2.44772 5 3 5L7 5C7 4.44771 7.44772 4 8 4L12 4ZM7 6L3 6L3 16L17 16L17 6L13 6C13 6.55229 12.5523 7 12 7L8 7C7.44772 7 7 6.55229 7 6ZM12 5L8 5L8 6L12 6L12 5ZM10 10L5 10L5 11L10 11L10 10ZM5 12L10 12L10 13L5 13L5 12Z" clip-rule="evenodd" fill-rule="evenodd" fill="#000000" fill-opacity="1.000000"/>
</svg>
