<svg width="20.000000" height="20.000000" viewBox="0 0 20 20" fill="none" xmlns="http://www.w3.org/2000/svg" xmlns:xlink="http://www.w3.org/1999/xlink">
	<path id="形状结合" d="M3 5L7 5L7 6C7 6.55229 7.44772 7 8 7L12 7C12.5523 7 13 6.55229 13 6L13 5L17 5C17.5523 5 18 5.44771 18 6L18 16C18 16.5523 17.5523 17 17 17L3 17C2.44772 17 2 16.5523 2 16L2 6C2 5.44771 2.44772 5 3 5ZM8 5L12 5L12 6L8 6L8 5ZM5 10L10 10L10 11L5 11L5 10ZM10 12L5 12L5 13L10 13L10 12Z" clip-rule="evenodd" fill-rule="evenodd" fill="#000000" fill-opacity="1.000000"/>
</svg>
