<svg width="20.000000" height="20.000000" viewBox="0 0 20 20" fill="none" xmlns="http://www.w3.org/2000/svg" xmlns:xlink="http://www.w3.org/1999/xlink">
	<path id="形状结合" d="M18 10C18 5.58173 14.4183 2 10 2C5.58173 2 2 5.58173 2 10C2 14.4183 5.58173 18 10 18C14.4183 18 18 14.4183 18 10ZM3 10C3 6.134 6.13401 3 10 3C13.866 3 17 6.134 17 10C17 13.866 13.866 17 10 17C6.13401 17 3 13.866 3 10ZM12.2536 7.28796C12.1754 6.17947 11.2514 5.30447 10.123 5.30447L9.86823 5.30447L9.70454 5.31C8.4605 5.3941 7.47746 6.42987 7.47746 7.69525L7.47746 8.50958L8.47746 8.50958L8.47746 7.69525L8.48382 7.56131C8.55121 6.85605 9.14531 6.30447 9.86823 6.30447L10.123 6.30447L10.2468 6.31116C10.8159 6.37283 11.259 6.85492 11.259 7.44052L11.259 7.98334L11.2509 8.12363C11.2027 8.53946 10.9424 8.90546 10.5569 9.08505C9.77631 9.44882 9.27723 10.232 9.27723 11.0932L9.27723 12.0729L10.2772 12.0729L10.2772 11.0932L10.2853 10.9529C10.3335 10.5371 10.5939 10.1711 10.9793 9.99149C11.7599 9.62772 12.259 8.84457 12.259 7.98334L12.259 7.44052L12.2536 7.28796ZM9.80075 12.9497C10.215 12.9497 10.5508 13.2855 10.5508 13.6997C10.5508 14.1139 10.215 14.4497 9.80075 14.4497C9.38654 14.4497 9.05075 14.1139 9.05075 13.6997C9.05075 13.2855 9.38654 12.9497 9.80075 12.9497Z" clip-rule="evenodd" fill-rule="evenodd" fill="#000000" fill-opacity="1.000000"/>
</svg>
