<svg width="20.000000" height="20.000000" viewBox="0 0 20 20" fill="none" xmlns="http://www.w3.org/2000/svg" xmlns:xlink="http://www.w3.org/1999/xlink">
	<path id="形状结合" d="M12 2L4 2C3.44772 2 3 2.44772 3 3L3 18L13 18L13 3C13 2.44772 12.5523 2 12 2ZM6 6L7 6L7 9L6 9L6 6ZM9 6L10 6L10 9L9 9L9 6ZM17 18L14 18L14 8.79999L16.3714 9.74857C16.751 9.90042 17 10.2681 17 10.677L17 18ZM7 11L6 11L6 14L7 14L7 11ZM10 11L9 11L9 14L10 14L10 11Z" clip-rule="evenodd" fill-rule="evenodd" fill="#000000" fill-opacity="1.000000"/>
</svg>
