<svg width="20.000000" height="20.000000" viewBox="0 0 20 20" fill="none" xmlns="http://www.w3.org/2000/svg" xmlns:xlink="http://www.w3.org/1999/xlink">
	<path id="形状结合" d="M13 3C13 2.44772 12.5523 2 12 2L4 2C3.44771 2 3 2.44772 3 3L3 18L17 18L17 10.677C17 10.2681 16.7511 9.90042 16.3714 9.74857L13 8.39999L13 3ZM12 3L12 17L4 17L4 3L12 3ZM6 6L7 6L7 9L6 9L6 6ZM10 6L9 6L9 9L10 9L10 6ZM16 17L13 17L13 9.47699L16 10.677L16 17ZM6 11L7 11L7 14L6 14L6 11ZM9 11L10 11L10 14L9 14L9 11Z" clip-rule="evenodd" fill-rule="evenodd" fill="#000000" fill-opacity="1.000000"/>
</svg>
