<svg width="20.000000" height="20.000000" viewBox="0 0 20 20" fill="none" xmlns="http://www.w3.org/2000/svg" xmlns:xlink="http://www.w3.org/1999/xlink">
	<path id="形状" d="M4.62131 2.72714L4.51718 2.79767L2.94031 4.36435C1.90271 5.4007 2.78433 7.80841 4.89655 10.5081L5.25989 10.9605C5.3847 11.1121 5.51321 11.2644 5.64526 11.4173L6.05203 11.8772C6.26065 12.1078 6.47699 12.3392 6.70071 12.5707L7.06979 12.946L7.53467 13.4008C8.0769 13.92 8.61801 14.3986 9.14984 14.8313L9.60318 15.1908C12.2323 17.2213 14.5703 18.0687 15.5954 17.0834L17.0415 15.6378C17.6345 15.0741 17.6582 14.1223 17.0857 13.5207L16.9462 13.3814L14.8518 11.7129C14.2827 11.2342 13.4329 11.2466 12.8675 11.7506L12.7967 11.8178L11.871 12.743L11.5037 12.5217C9.90341 11.5182 8.55096 10.1657 7.54785 8.56567L7.32602 8.19897L8.32678 7.07526L8.39182 6.98969C8.75146 6.44196 8.7341 5.75116 8.35632 5.23123L6.65305 3.08829C6.16187 2.47165 5.2897 2.31995 4.62131 2.72714ZM7.56046 5.83633L5.87088 3.71133C5.69452 3.48996 5.38083 3.43539 5.16425 3.56647L5.15378 3.56332L3.6474 5.07144C3.20087 5.51746 3.64426 6.89667 4.78473 8.63028L5.06021 9.03635L5.35992 9.45343C5.41187 9.5238 5.46478 9.59451 5.51868 9.66562L5.85373 10.0963C5.96927 10.2411 6.08859 10.387 6.21167 10.5339L6.59201 10.9771C6.91812 11.3482 7.267 11.7234 7.63727 12.0984L8.00433 12.4636C8.98578 13.4221 9.96582 14.2344 10.8694 14.875L11.2808 15.1584C11.4835 15.2939 11.6815 15.4201 11.8739 15.5366L12.251 15.7566C13.5426 16.4807 14.5295 16.7209 14.8954 16.3693L16.3435 14.9218C16.545 14.7302 16.553 14.4115 16.3706 14.2196L16.2822 14.1271L14.219 12.4871C14.0197 12.3195 13.7274 12.3237 13.5454 12.4856L12.0335 13.9956L11.3468 13.5952C9.3288 12.4191 7.65005 10.7403 6.4744 8.72275L6.09769 8.07706L7.54813 6.4498L7.56863 6.42239C7.68707 6.2417 7.68106 6.00311 7.56046 5.83633Z" clip-rule="evenodd" fill-rule="evenodd" fill="#000000" fill-opacity="1.000000"/>
</svg>
