<svg width="20.000000" height="20.000000" viewBox="0 0 20 20" fill="none" xmlns="http://www.w3.org/2000/svg" xmlns:xlink="http://www.w3.org/1999/xlink">
	<path id="形状结合" d="M18 5C18 4.44772 17.5523 4 17 4L5 4C4.44772 4 4 4.44772 4 5L4 6L3 6C2.44772 6 2 6.44772 2 7L2 15C2 15.5523 2.44772 16 3 16L6.70001 16L8.26407 17.7001L8.32294 17.7589C8.7294 18.1329 9.362 18.1065 9.73593 17.7001L11.3 16L15 16C15.5523 16 16 15.5523 16 15L16 14L17 14C17.5523 14 18 13.5523 18 13L18 5ZM15 6L5 6L5 5L17 5L17 13L16 13L16 7C16 6.44772 15.5523 6 15 6ZM3 7L15 7L15 15L10.8612 15L9 17.023L7.13882 15L3 15L3 7ZM12 10.5024L6 10.5024L6 11.5024L12 11.5024L12 10.5024Z" clip-rule="evenodd" fill-rule="evenodd" fill="#000000" fill-opacity="1.000000"/>
</svg>
