<svg width="20.000000" height="20.000000" viewBox="0 0 20 20" fill="none" xmlns="http://www.w3.org/2000/svg" xmlns:xlink="http://www.w3.org/1999/xlink">
	<path id="形状结合" d="M10 18C14.4143 18 18 14.4143 18 10C18 5.58572 14.4143 2 10 2C5.58572 2 2 5.58572 2 10C2 14.4143 5.58572 18 10 18ZM10.6 6.29999C10.6 6.74142 10.2414 7.10001 9.8 7.10001C9.35857 7.10001 9 6.74142 9 6.29999C9 5.85858 9.35857 5.5 9.8 5.5C10.2414 5.5 10.6 5.85858 10.6 6.29999ZM10.5 8.5L8.5 8.5L8.5 9.5L9.5 9.5L9.5 13.5L8.5 13.5L8.5 14.5L11.5 14.5L11.5 13.5L10.5 13.5L10.5 8.5Z" clip-rule="evenodd" fill-rule="evenodd" fill="#000000" fill-opacity="1.000000"/>
</svg>
