<svg width="20.000000" height="20.000000" viewBox="0 0 20 20" fill="none" xmlns="http://www.w3.org/2000/svg" xmlns:xlink="http://www.w3.org/1999/xlink">
	<path id="形状结合" d="M18 10C18 5.58173 14.4183 2 10 2C5.58173 2 2 5.58173 2 10C2 14.4183 5.58173 18 10 18C14.4183 18 18 14.4183 18 10ZM3 10C3 6.134 6.134 3 10 3C13.866 3 17 6.134 17 10C17 13.866 13.866 17 10 17C6.134 17 3 13.866 3 10ZM10.6 6.29999C10.6 6.74142 10.2414 7.10001 9.8 7.10001C9.35857 7.10001 9 6.74142 9 6.29999C9 5.85858 9.35857 5.5 9.8 5.5C10.2414 5.5 10.6 5.85858 10.6 6.29999ZM10.5 8.5L8.5 8.5L8.5 9.5L9.5 9.5L9.5 13.5L8.5 13.5L8.5 14.5L11.5 14.5L11.5 13.5L10.5 13.5L10.5 8.5Z" clip-rule="evenodd" fill-rule="evenodd" fill="#000000" fill-opacity="1.000000"/>
</svg>
