<svg width="20.000000" height="20.000000" viewBox="0 0 20 20" fill="none" xmlns="http://www.w3.org/2000/svg" xmlns:xlink="http://www.w3.org/1999/xlink">
	<path id="形状结合" d="M3.50386 5.71208L9.50386 2.28351C9.81129 2.10783 10.1887 2.10783 10.4961 2.28351L16.4961 5.71208C16.8077 5.89012 17 6.22147 17 6.58032L17 15C17 15.5523 16.5523 16 16 16L4 16C3.44771 16 3 15.5523 3 15L3 6.58032C3 6.22147 3.19229 5.89012 3.50386 5.71208ZM6 8L9 8L9 9L6 9L6 8ZM9 10.5L6 10.5L6 11.5L9 11.5L9 10.5ZM11 10.5L14 10.5L14 11.5L11 11.5L11 10.5ZM9 13L6 13L6 14L9 14L9 13ZM14 13L11 13L11 14L14 14L14 13Z" clip-rule="evenodd" fill-rule="evenodd" fill="#000000" fill-opacity="1.000000"/>
</svg>
