<svg width="20.000000" height="20.000000" viewBox="0 0 20 20" fill="none" xmlns="http://www.w3.org/2000/svg" xmlns:xlink="http://www.w3.org/1999/xlink">
	<desc>aa</desc>		
	<path id="形状结合" d="M10 2C5.58172 2 2 5.58173 2 10C2 14.4183 5.58172 18 10 18C14.4183 18 18 14.4183 18 10C18 5.58173 14.4183 2 10 2ZM10 17C6.13401 17 3 13.866 3 10C3 6.134 6.13401 3 10 3C13.866 3 17 6.134 17 10C17 13.866 13.866 17 10 17ZM7 9.9962L11.5962 14.5924L12.3033 13.8853L8.41492 9.9969L12.3033 6.1071L11.5962 5.39999L7 9.9962Z" clip-rule="evenodd" fill-rule="evenodd" fill="currentColor" fill-opacity="1.000000"/>
</svg>
