<svg width="20.000000" height="20.000000" viewBox="0 0 20 20" fill="none" xmlns="http://www.w3.org/2000/svg" xmlns:xlink="http://www.w3.org/1999/xlink">
	<path id="形状结合" d="M8.25665 11.9505C9.4895 13.038 11.3716 12.9935 12.5515 11.8163L16.9985 7.36923C17.7922 6.57559 18.1022 5.41882 17.8116 4.33466C17.5212 3.25052 16.6743 2.40369 15.5902 2.11319C14.506 1.82269 13.3492 2.13266 12.5556 2.9263L10.3456 5.13846L11.0859 5.87878L13.2959 3.6687C13.688 3.27481 14.2208 3.05338 14.7766 3.05338C15.3323 3.05338 15.8651 3.27481 16.2572 3.6687C16.6514 4.06079 16.873 4.59387 16.873 5.14987C16.873 5.70587 16.6514 6.23892 16.2572 6.63101L11.8143 11.0739C11.0444 11.8438 9.82703 11.8936 8.99963 11.2075L8.25665 11.9505ZM7.37341 8.10956C8.57831 6.90674 10.5164 6.8858 11.7468 8.04611L11.0056 8.78729C10.621 8.4339 10.1168 8.23663 9.59229 8.23663C9.0365 8.23663 8.50366 8.45807 8.11163 8.85196L3.6687 13.2949C3.27448 13.687 3.05283 14.22 3.05283 14.776C3.05283 15.3321 3.27448 15.8651 3.6687 16.2572C4.4928 17.0802 5.8132 17.0739 6.63101 16.2572L8.84003 14.0471L9.58032 14.7874L7.36923 16.9996C6.14233 18.2265 4.15317 18.2265 2.9263 16.9996C1.6994 15.7727 1.6994 13.7836 2.9263 12.5567L7.37341 8.10956Z" clip-rule="evenodd" fill-rule="evenodd" fill="#000000" fill-opacity="1.000000"/>
	<path id="形状结合" d="M8.52124 11.6505C9.80573 12.7836 11.0549 12.7445 12.2689 11.5332L12.5515 11.8163L12.2686 11.5335L16.7157 7.0864L16.9985 7.36923L16.7157 7.0864C17.4619 6.34021 17.6984 5.45749 17.4253 4.4382L17.8116 4.33466L17.4253 4.4382C17.1522 3.41888 16.506 2.77267 15.4866 2.49957L15.5902 2.11319L15.4867 2.49957C14.4673 2.22644 13.5847 2.46298 12.8384 3.20914L12.5556 2.9263L12.8386 3.20901L10.6285 5.42117L10.3456 5.13846L10.6284 4.85562L11.3687 5.59592L11.0859 5.87878L10.803 5.59592L13.0131 3.38586L13.2959 3.6687L13.0125 3.38654C13.4989 2.89777 14.0869 2.65338 14.7766 2.65338L14.7766 3.05338L14.7766 2.65338C15.4662 2.65338 16.0542 2.89777 16.5407 3.38654L16.2572 3.6687L16.5392 3.3851C17.0284 3.87164 17.2731 4.4599 17.2731 5.14987L16.873 5.14987L17.2731 5.14987C17.2731 5.83981 17.0284 6.42807 16.5392 6.91461L16.2572 6.63101L16.54 6.91385L12.0971 11.3568L12.0971 11.3568C11.026 12.4279 9.90839 12.4807 8.74426 11.5154L8.99963 11.2075L9.28247 11.4903L8.53949 12.2333L8.25665 11.9505L8.52124 11.6505ZM7.992 12.2504L7.97379 11.6676L8.7168 10.9246L9.25494 10.8996C10.045 11.5548 10.8039 11.5186 11.5314 10.7911L11.8143 11.0739L11.5314 10.7911L15.9744 6.34818L15.9751 6.34741C16.3071 6.01724 16.473 5.61807 16.4731 5.14987L16.4731 5.14987C16.4731 4.68167 16.3071 4.2825 15.9751 3.95233L15.9737 3.9509C15.6436 3.6192 15.2445 3.45337 14.7766 3.45337L14.7766 3.45337C14.3086 3.45337 13.9095 3.6192 13.5795 3.9509L13.5788 3.95157L11.3687 6.16162L10.803 6.16162L10.0627 5.4213L10.0626 4.85574L12.2726 2.64359L12.2728 2.64346C13.2367 1.67957 14.377 1.37399 15.6937 1.72684L15.6937 1.72684C17.0104 2.07965 17.8452 2.9144 18.1981 4.23114L18.1981 4.23114C18.5508 5.54785 18.2453 6.68817 17.2814 7.65207L17.2814 7.65207L12.8343 12.0992L12.834 12.0995C11.2657 13.6643 9.65179 13.7146 7.992 12.2504ZM7.09082 7.82648C8.71198 6.20807 10.3555 6.18427 12.0212 7.7551L12.0296 8.32895L11.2885 9.07013L10.735 9.08185C10.4119 8.78503 10.031 8.63663 9.59229 8.63663L9.59229 8.23663L9.59229 8.63663C9.12433 8.63663 8.72528 8.80246 8.39514 9.13412L8.39447 9.1348L3.95154 13.5777L3.95078 13.5785C3.6188 13.9087 3.45285 14.3079 3.45285 14.776L3.05283 14.776L3.45285 14.776C3.45285 15.2442 3.6188 15.6434 3.95078 15.9736L3.95135 15.9742C4.75037 16.7722 5.54935 16.7722 6.34836 15.9742L6.63101 16.2572L6.34808 15.9744L8.55713 13.7644L9.12286 13.7643L9.86316 14.5046L9.86322 15.0702L7.65213 17.2824L7.65207 17.2824C6.96051 17.974 6.12576 18.3198 5.14777 18.3198C4.16977 18.3198 3.33499 17.974 2.64346 17.2824L2.9263 16.9996L2.64346 17.2824C1.9519 16.5909 1.60614 15.7561 1.60614 14.7781C1.60614 13.8001 1.9519 12.9654 2.64346 12.2738L2.64346 12.2738L7.09058 7.82672L7.09082 7.82648ZM7.65601 8.39264L7.37341 8.10956L7.65625 8.3924L3.20914 12.8395L2.9263 12.5567L3.20914 12.8395C2.6738 13.3748 2.40613 14.0211 2.40613 14.7781C2.40613 15.5352 2.6738 16.1814 3.20914 16.7168L3.20914 16.7168C4.50156 18.0092 5.79398 18.0092 7.0864 16.7168L7.36923 16.9996L7.0863 16.7168L9.29742 14.5047L9.58032 14.7874L9.29749 15.0703L8.55719 14.33L8.84003 14.0471L9.12292 14.3299L6.91391 16.54L6.91367 16.5402C5.73779 17.7146 4.56192 17.7146 3.38605 16.5402L3.6687 16.2572L3.38663 16.5408C2.89743 16.0543 2.65283 15.466 2.65283 14.776L2.65283 14.776C2.65283 14.0861 2.89743 13.4978 3.38663 13.0113L3.6687 13.2949L3.38586 13.0121L7.8288 8.56912L8.11163 8.85196L7.82812 8.56979C8.31458 8.08099 8.90265 7.83661 9.59229 7.83661L9.59229 7.83661C10.2388 7.83661 10.8002 8.05533 11.2762 8.49274L11.0056 8.78729L10.7227 8.50446L11.4639 7.76328L11.7468 8.04611L11.4724 8.33713C10.1831 7.12131 8.91095 7.13983 7.65601 8.39264Z" fill-rule="evenodd" fill="#000000" fill-opacity="1.000000"/>
</svg>
