<svg width="20.000000" height="20.000000" viewBox="0 0 20 20" fill="none" xmlns="http://www.w3.org/2000/svg" xmlns:xlink="http://www.w3.org/1999/xlink">
	<path id="形状结合" d="M9 10.5C9.27615 10.5 9.5 10.7239 9.5 11L9.5 13.75C9.5 15.483 8.14355 16.8992 6.43442 16.9949L6.25 17C4.45508 17 3 15.5449 3 13.75C3 11.9551 4.45508 10.5 6.25 10.5L9 10.5ZM13.75 10.5C15.5449 10.5 17 11.9551 17 13.75C17 15.483 15.6436 16.8992 13.9344 16.9949L13.75 17C11.9551 17 10.5 15.5449 10.5 13.75L10.5 11C10.5 10.7239 10.7238 10.5 11 10.5L13.75 10.5ZM8.5 11.5L8.5 13.75L8.49481 13.9041C8.41565 15.0748 7.44086 16 6.25 16C5.00735 16 4 14.9926 4 13.75C4 12.5074 5.00735 11.5 6.25 11.5L8.5 11.5ZM13.75 11.5L13.9041 11.5052C15.0748 11.5844 16 12.5591 16 13.75C16 14.9926 14.9926 16 13.75 16C12.5074 16 11.5 14.9926 11.5 13.75L11.5 11.5L13.75 11.5ZM6.25 3C8.04492 3 9.5 4.45508 9.5 6.25L9.5 9C9.5 9.27614 9.27615 9.5 9 9.5L6.25 9.5C4.45508 9.5 3 8.04492 3 6.25C3 4.51697 4.35645 3.10075 6.06558 3.00514L6.25 3ZM13.75 3C15.5449 3 17 4.45508 17 6.25C17 8.04492 15.5449 9.5 13.75 9.5L11 9.5C10.7238 9.5 10.5 9.27614 10.5 9L10.5 6.25C10.5 4.51697 11.8564 3.10075 13.5656 3.00514L13.75 3ZM6.25 4L6.40405 4.00519C7.57483 4.08435 8.5 5.05914 8.5 6.25L8.5 8.5L6.25 8.5L6.09595 8.49481C4.92517 8.41565 4 7.44086 4 6.25C4 5.00735 5.00735 4 6.25 4ZM13.75 4C14.9926 4 16 5.00735 16 6.25L15.9948 6.40405C15.9156 7.57484 14.9409 8.5 13.75 8.5L11.5 8.5L11.5 6.25L11.5052 6.09595C11.5844 4.92516 12.5591 4 13.75 4Z" clip-rule="evenodd" fill-rule="evenodd" fill="#000000" fill-opacity="1.000000"/>
</svg>
