<svg width="20.000000" height="20.000000" viewBox="0 0 20 20" fill="none" xmlns="http://www.w3.org/2000/svg" xmlns:xlink="http://www.w3.org/1999/xlink">
	<path id="形状结合" d="M9.5 6.25C9.5 4.45508 8.04492 3 6.25 3C4.45508 3 3 4.45508 3 6.25C3 8.04492 4.45508 9.5 6.25 9.5L9 9.5C9.27615 9.5 9.5 9.27614 9.5 9L9.5 6.25ZM13.75 3C11.9551 3 10.5 4.45508 10.5 6.25L10.5 9C10.5 9.27614 10.7238 9.5 11 9.5L13.75 9.5C15.5449 9.5 17 8.04492 17 6.25C17 4.45508 15.5449 3 13.75 3ZM13.75 10.5L11 10.5C10.7238 10.5 10.5 10.7239 10.5 11L10.5 13.75C10.5 15.5449 11.9551 17 13.75 17C15.5449 17 17 15.5449 17 13.75C17 11.9551 15.5449 10.5 13.75 10.5ZM6.25 10.5L9 10.5C9.27615 10.5 9.5 10.7239 9.5 11L9.5 13.75C9.5 15.5449 8.04492 17 6.25 17C4.45508 17 3 15.5449 3 13.75C3 11.9551 4.45508 10.5 6.25 10.5Z" clip-rule="evenodd" fill-rule="evenodd" fill="#000000" fill-opacity="1.000000"/>
</svg>
