<svg width="20.000000" height="20.000000" viewBox="0 0 20 20" fill="none" xmlns="http://www.w3.org/2000/svg" xmlns:xlink="http://www.w3.org/1999/xlink">
	<path id="形状结合" d="M18 5C18 4.44772 17.5523 4 17 4L3 4C2.44769 4 2 4.44772 2 5L2 15C2 15.5523 2.44769 16 3 16L17 16C17.5523 16 18 15.5523 18 15L18 5ZM17 5L3 5L3 15L17 15L17 5ZM8.47467 8.64142C8.47467 9.52429 7.75751 10.2414 6.87469 10.2414C5.99182 10.2414 5.27466 9.52429 5.27466 8.64142C5.27466 7.75858 5.99182 7.04141 6.87469 7.04141C7.75751 7.04141 8.47467 7.75858 8.47467 8.64142ZM11 8.5L15 8.5L15 9.5L11 9.5L11 8.5ZM15 10.5L11 10.5L11 11.5L15 11.5L15 10.5ZM9.27466 12.9586C9.27466 11.6331 8.20013 10.5586 6.87469 10.5586C5.54919 10.5586 4.47467 11.6331 4.47467 12.9586L9.27466 12.9586Z" clip-rule="evenodd" fill-rule="evenodd" fill="#000000" fill-opacity="1.000000"/>
</svg>
