<svg width="20.000000" height="20.000000" viewBox="0 0 20 20" fill="none" xmlns="http://www.w3.org/2000/svg" xmlns:xlink="http://www.w3.org/1999/xlink">
	<path id="形状结合" d="M3 4L17 4C17.5523 4 18 4.44772 18 5L18 14C18 14.5523 17.5523 15 17 15L12.5 15L10.7682 17.0781C10.3684 17.5579 9.63156 17.5579 9.23178 17.0781L7.5 15L3 15C2.44772 15 2 14.5523 2 14L2 5C2 4.44772 2.44772 4 3 4ZM6.21249 10.55C6.70911 10.55 7.11249 10.1466 7.11249 9.64999C7.11249 9.15338 6.70911 8.75 6.21249 8.75C5.71588 8.75 5.3125 9.15338 5.3125 9.64999C5.3125 10.1466 5.71588 10.55 6.21249 10.55ZM9.96249 10.55C10.4591 10.55 10.8625 10.1466 10.8625 9.64999C10.8625 9.15338 10.4591 8.75 9.96249 8.75C9.46588 8.75 9.0625 9.15338 9.0625 9.64999C9.0625 10.1466 9.46588 10.55 9.96249 10.55ZM14.6125 9.64999C14.6125 10.1466 14.2091 10.55 13.7125 10.55C13.2159 10.55 12.8125 10.1466 12.8125 9.64999C12.8125 9.15338 13.2159 8.75 13.7125 8.75C14.2091 8.75 14.6125 9.15338 14.6125 9.64999Z" clip-rule="evenodd" fill-rule="evenodd" fill="#000000" fill-opacity="1.000000"/>
</svg>
