<svg width="20.000000" height="20.000000" viewBox="0 0 20 20" fill="none" xmlns="http://www.w3.org/2000/svg" xmlns:xlink="http://www.w3.org/1999/xlink">
	<path id="形状结合" d="M18 10C18 5.58173 14.4183 2 10 2C5.58173 2 2 5.58173 2 10C2 14.4183 5.58173 18 10 18C14.4183 18 18 14.4183 18 10ZM3 10C3 6.13403 6.134 3 10 3C13.866 3 17 6.13403 17 10C17 13.866 13.866 17 10 17C6.134 17 3 13.866 3 10ZM14.5 8C14.5 6.61926 13.3807 5.5 12 5.5C10.6193 5.5 9.5 6.61926 9.5 8L9.5 12C9.5 12.8284 8.82843 13.5 8 13.5C7.17157 13.5 6.5 12.8284 6.5 12C6.5 11.5963 6.65953 11.2192 6.93935 10.9393C7.07877 10.7999 7.24417 10.689 7.42598 10.6136C7.51628 10.5762 7.61021 10.5477 7.70673 10.5286C7.97762 10.475 8.15378 10.2119 8.10019 9.94104C8.0466 9.67017 7.78355 9.49396 7.51266 9.54755C7.35124 9.57953 7.19403 9.62726 7.04294 9.68988C6.73949 9.81573 6.46408 10.0004 6.23224 10.2322C5.76674 10.6978 5.5 11.3284 5.5 12C5.5 13.3807 6.61929 14.5 8 14.5C9.38071 14.5 10.5 13.3807 10.5 12L10.5 8C10.5 7.17157 11.1716 6.5 12 6.5C12.8284 6.5 13.5 7.17157 13.5 8C13.5 8.40369 13.3405 8.78082 13.0607 9.06067C12.9212 9.20007 12.7558 9.31097 12.574 9.38641C12.4837 9.42383 12.3898 9.45233 12.2933 9.47144C12.0224 9.52502 11.8462 9.78809 11.8998 10.059C11.9534 10.3298 12.2164 10.506 12.4873 10.4525C12.6488 10.4205 12.806 10.3727 12.9571 10.3101C13.2605 10.1843 13.5359 9.99963 13.7678 9.76776C14.2333 9.30225 14.5 8.67163 14.5 8Z" clip-rule="evenodd" fill-rule="evenodd" fill="#000000" fill-opacity="1.000000"/>
</svg>
