<svg width="20.000000" height="20.000000" viewBox="0 0 20 20" fill="none" xmlns="http://www.w3.org/2000/svg" xmlns:xlink="http://www.w3.org/1999/xlink">
	<path id="形状结合" d="M6 10.8C6.44143 10.8 6.8 10.4414 6.8 10C6.8 9.55859 6.44143 9.20001 6 9.20001C5.55857 9.20001 5.2 9.55859 5.2 10C5.2 10.4414 5.55857 10.8 6 10.8ZM10.8 10C10.8 10.4414 10.4414 10.8 10 10.8C9.55857 10.8 9.2 10.4414 9.2 10C9.2 9.55859 9.55857 9.20001 10 9.20001C10.4414 9.20001 10.8 9.55859 10.8 10ZM14.8 10C14.8 10.4414 14.4414 10.8 14 10.8C13.5586 10.8 13.2 10.4414 13.2 10C13.2 9.55859 13.5586 9.20001 14 9.20001C14.4414 9.20001 14.8 9.55859 14.8 10Z" clip-rule="evenodd" fill-rule="evenodd" fill="#000000" fill-opacity="1.000000"/>
</svg>
