<svg width="20.000000" height="20.000000" viewBox="0 0 20 20" fill="none" xmlns="http://www.w3.org/2000/svg" xmlns:xlink="http://www.w3.org/1999/xlink">
	<path id="形状结合" d="M10.274 3C10.5909 3 10.889 3.15018 11.0776 3.40479L13 6L17.8018 6C18.3541 6 18.8018 6.44772 18.8018 7C18.8018 7.06 18.7964 7.11987 18.7856 7.17889L17.1493 16.1789C17.0629 16.6544 16.6487 17 16.1654 17L4.19824 17C3.90405 17 3.63959 16.873 3.4566 16.6708C3.29602 16.4934 3.19824 16.2581 3.19824 16C3.19824 15.94 3.20361 15.8801 3.21436 15.8211C3.15594 16.1424 3.25726 16.4503 3.4566 16.6708C3.63812 16.8716 3.90088 17 4.19824 17L4 17C3.44769 17 3 16.5523 3 16L3 4C3 3.44772 3.44769 3 4 3L10.274 3ZM4 11.5L4.85071 6.82111C4.93713 6.34561 5.35132 6 5.83459 6L11.7556 6L10.274 4L4 4L4 11.5ZM17.8018 7L5.83459 7L4.19824 16L16.1654 16L17.8018 7Z" clip-rule="evenodd" fill-rule="evenodd" fill="#000000" fill-opacity="1.000000"/>
</svg>
