<svg width="20.000000" height="20.000000" viewBox="0 0 20 20" fill="none" xmlns="http://www.w3.org/2000/svg" xmlns:xlink="http://www.w3.org/1999/xlink">
	<path id="形状结合" d="M18 5C18 4.44772 17.5523 4 17 4L3 4C2.44772 4 2 4.44772 2 5L2 15C2 15.5523 2.44772 16 3 16L17 16C17.5523 16 18 15.5523 18 15L18 5ZM13 7L17 7L17 5L3 5L3 15L17 15L17 13L13 13C11.3431 13 10 11.6569 10 10C10 8.34314 11.3431 7 13 7ZM13 8L17 8L17 12L13 12L12.8507 11.9945C11.8159 11.9182 11 11.0544 11 10L11.0055 9.85074C11.0818 8.81589 11.9456 8 13 8ZM12.7527 10.75C13.1665 10.75 13.5027 10.4138 13.5027 10C13.5027 9.58615 13.1665 9.25 12.7527 9.25C12.3389 9.25 12.0027 9.58615 12.0027 10C12.0027 10.4138 12.3389 10.75 12.7527 10.75Z" clip-rule="evenodd" fill-rule="evenodd" fill="#000000" fill-opacity="1.000000"/>
</svg>
