<svg width="20.000000" height="20.000000" viewBox="0 0 20 20" fill="none" xmlns="http://www.w3.org/2000/svg" xmlns:xlink="http://www.w3.org/1999/xlink">
	<path id="形状结合" d="M3 3.79282C3 3.36014 3.35495 3 3.79282 3L16.2072 3C16.6399 3 17 3.35495 17 3.79282L17 13.6129L16.9984 13.2873L14.3535 10.6465C14.1959 10.4888 13.9566 10.457 13.766 10.5581L13.6876 10.6096L11.537 12.329L7.85352 8.64645C7.67999 8.4729 7.41052 8.45361 7.2157 8.58859L7.14642 8.64645L3.14642 12.6465L3.00052 12.7847L3 14.1588L3 3.79282ZM13 9C12.4482 9 12 8.55179 12 8C12 7.44821 12.4482 7 13 7C13.5518 7 14 7.44821 14 8C14 8.55179 13.5518 9 13 9ZM3 14.1966L3 16.2072C3 16.6451 3.36014 17 3.79282 17L16.2072 17C16.645 17 17 16.6399 17 16.2072L17 14.7027L13.964 11.67L11.8123 13.3904L11.734 13.442C11.5433 13.5431 11.3041 13.5112 11.1464 13.3536L7.5 9.707L3.85355 13.3536L3 14.1966Z" clip-rule="evenodd" fill-rule="evenodd" fill="#000000" fill-opacity="1.000000"/>
</svg>
