<svg width="20.000000" height="20.000000" viewBox="0 0 20 20" fill="none" xmlns="http://www.w3.org/2000/svg" xmlns:xlink="http://www.w3.org/1999/xlink">
	<path id="形状结合" d="M3.79282 3C3.35495 3 3 3.36014 3 3.79282L3 16.2072C3 16.6451 3.36014 17 3.79282 17L16.2072 17C16.6451 17 17 16.6399 17 16.2072L17 3.79282C17 3.35495 16.6399 3 16.2072 3L3.79282 3ZM4 4L16 4L16 12.2929L14.3535 10.6465C14.1959 10.4888 13.9566 10.457 13.766 10.5581L13.6877 10.6096L11.537 12.329L7.85355 8.64645C7.67999 8.4729 7.41055 8.45361 7.2157 8.58859L7.14645 8.64645L4 11.7929L4 4ZM4 13.2071L4 16L16 16L16 13.707L13.964 11.67L11.8123 13.3904L11.734 13.442C11.5434 13.5431 11.3041 13.5112 11.1465 13.3536L7.5 9.707L4 13.2071ZM12 8C12 8.55179 12.4482 9 13 9C13.5518 9 14 8.55179 14 8C14 7.44821 13.5518 7 13 7C12.4482 7 12 7.44821 12 8Z" clip-rule="evenodd" fill-rule="evenodd" fill="#000000" fill-opacity="1.000000"/>
</svg>
