<svg width="20.000000" height="20.000000" viewBox="0 0 20 20" fill="none" xmlns="http://www.w3.org/2000/svg" xmlns:xlink="http://www.w3.org/1999/xlink">
	<path id="形状结合" d="M17.7673 6.85797C18.1578 7.2485 18.1578 7.88165 17.7673 8.27219C17.6281 8.41144 17.4508 8.50647 17.2578 8.54535L14.9998 9.0004L12.2392 12.9786C12.1712 13.0765 12.1214 13.1857 12.0919 13.3011L11.4198 15.9313C11.283 16.4664 10.7384 16.7893 10.2033 16.6526C10.0294 16.6081 9.87069 16.5177 9.74378 16.3908L7.00491 13.6519L5.09554 15.5613L3.05355 16.8962L4.38844 14.8542L6.29781 12.9448L3.74023 10.3872C3.34971 9.99673 3.34971 9.36356 3.74023 8.97302C3.86699 8.84628 4.02548 8.75592 4.19913 8.71143L6.81062 8.0423C6.93755 8.00977 7.05686 7.95261 7.16175 7.87408L10.9998 5.0004L11.535 2.77795C11.6642 2.241 12.2043 1.91055 12.7413 2.03983C12.9203 2.08295 13.084 2.17468 13.2143 2.30493L17.7673 6.85797ZM12.5072 3.01205L17.0602 7.56506L14.4077 8.09961L11.4176 12.4085L11.3226 12.5594C11.2344 12.7143 11.1673 12.8804 11.123 13.0536L10.4509 15.6837L4.44734 9.68015L7.05882 9.01102L7.24615 8.95309C7.43021 8.88614 7.60376 8.79236 7.7611 8.67456L11.8877 5.58487L12.5072 3.01205Z" clip-rule="evenodd" fill-rule="evenodd" fill="#000000" fill-opacity="1.000000"/>
</svg>
