<svg width="20.000000" height="20.000000" viewBox="0 0 20 20" fill="none" xmlns="http://www.w3.org/2000/svg" xmlns:xlink="http://www.w3.org/1999/xlink">
	<path id="形状结合" d="M13.2144 2.30453L17.7675 6.85757C18.3318 7.42188 18.0402 8.38733 17.2579 8.54498L15 9L12.2393 12.9782C12.1714 13.0761 12.1215 13.1853 12.092 13.3008L11.4199 15.9309C11.2281 16.6817 10.2919 16.9384 9.74395 16.3904L7.0052 13.6516L5.09555 15.5613L3.05355 16.8962L4.38844 14.8542L6.2981 12.9445L3.74041 10.3868C3.19262 9.83905 3.44886 8.90332 4.1993 8.71103L6.81079 8.0419C6.93772 8.00937 7.05703 7.95221 7.16193 7.87369L11 5L11.5351 2.77756C11.718 2.01807 12.6621 1.75217 13.2144 2.30453Z" clip-rule="evenodd" fill-rule="evenodd" fill="#000000" fill-opacity="1.000000"/>
</svg>
