<svg width="20.000000" height="20.000000" viewBox="0 0 20 20" fill="none" xmlns="http://www.w3.org/2000/svg" xmlns:xlink="http://www.w3.org/1999/xlink">
	<path id="形状结合" d="M18 10C18 5.58173 14.4183 2 10 2C5.58172 2 2 5.58173 2 10C2 14.4183 5.58172 18 10 18C14.4183 18 18 14.4183 18 10ZM3 10C3 6.134 6.13401 3 10 3C13.866 3 17 6.134 17 10C17 13.866 13.866 17 10 17C6.13401 17 3 13.866 3 10ZM10.5 9.5L10.5 6L9.5 6L9.5 9.5L6 9.5L6 10.5L9.5 10.5L9.5 14L10.5 14L10.5 10.5L14 10.5L14 9.5L10.5 9.5Z" clip-rule="evenodd" fill-rule="evenodd" fill="#000000" fill-opacity="1.000000"/>
</svg>
