<svg width="20.000000" height="20.000000" viewBox="0 0 20 20" fill="none" xmlns="http://www.w3.org/2000/svg" xmlns:xlink="http://www.w3.org/1999/xlink">
	<path id="形状结合" d="M10.4961 2.28351L16.4961 5.71208C16.8077 5.89012 17 6.22147 17 6.58032L17 15C17 15.5523 16.5523 16 16 16L4 16C3.44771 16 3 15.5523 3 15L3 6.58032C3 6.22147 3.19229 5.89012 3.50386 5.71208L9.50386 2.28351C9.81129 2.10783 10.1887 2.10783 10.4961 2.28351ZM10 3.15175L16 6.58032L16 15L4 15L4 6.58032L10 3.15175ZM10.5 9.79297L10.5 6L9.5 6L9.5 9.79297L8.35355 8.64644L7.64645 9.35355L10 11.7071L12.3535 9.35355L11.6465 8.64644L10.5 9.79297ZM12.5 12.5L12.5 13.5L7.5 13.5L7.5 12.5L12.5 12.5Z" clip-rule="evenodd" fill-rule="evenodd" fill="#000000" fill-opacity="1.000000"/>
</svg>
