<svg width="20.000000" height="20.000000" viewBox="0 0 20 20" fill="none" xmlns="http://www.w3.org/2000/svg" xmlns:xlink="http://www.w3.org/1999/xlink">
	<path id="形状结合" d="M17 4L17 10.5181C17 12.6712 15.8463 14.6593 13.9768 15.7275L10 18L6.02319 15.7275C4.15369 14.6593 3 12.6712 3 10.5181L3 4L3.05408 3.96912C7.25049 1.57114 12.3783 1.51117 16.6213 3.78925L17 4ZM4.20599 4.48703C7.85352 2.67035 12.1465 2.67035 15.794 4.48703L16 4.59299L16 10.5181L15.9946 10.7513C15.9153 12.455 14.9708 14.0078 13.4807 14.8593L9.99902 16.847L6.51929 14.8593L6.31952 14.7389C4.87964 13.8247 4 12.2343 4 10.5181L4 4.59299L4.20599 4.48703ZM14.3536 6.85355L13.6464 6.14645L9 10.793L6.35358 8.14645L5.64642 8.85355L9 12.2071L14.3536 6.85355Z" clip-rule="evenodd" fill-rule="evenodd" fill="#000000" fill-opacity="1.000000"/>
</svg>
