<svg width="20.000000" height="20.000000" viewBox="0 0 20 20" fill="none" xmlns="http://www.w3.org/2000/svg" xmlns:xlink="http://www.w3.org/1999/xlink">
	<path id="形状结合" d="M9.5 2.5L9.5 9.5L2.5 9.5L2.5 2.5L9.5 2.5ZM17.5 2.5L17.5 9.5L10.5 9.5L10.5 2.5L17.5 2.5ZM8.5 3.5L3.5 3.5L3.5 8.5L8.5 8.5L8.5 3.5ZM16.5 3.5L11.5 3.5L11.5 8.5L16.5 8.5L16.5 3.5ZM7 5L5 5L5 7L7 7L7 5ZM15 5L13 5L13 7L15 7L15 5ZM9.5 10.5L9.5 17.5L2.5 17.5L2.5 10.5L9.5 10.5ZM11.5 11.5L11.5 17.5L10.5 17.5L10.5 10.5L14.5 10.5L14.5 13.5L16.5 13.5L16.5 10.5L17.5 10.5L17.5 14.5L13.5 14.5L13.5 11.5L11.5 11.5ZM8.5 11.5L3.5 11.5L3.5 16.5L8.5 16.5L8.5 11.5ZM5 13L7 13L7 15L5 15L5 13ZM16.5 15.5L17.5 15.5L17.5 17.5L12.5 17.5L12.5 16.5L16.5 16.5L16.5 15.5Z" clip-rule="evenodd" fill-rule="evenodd" fill="#000000" fill-opacity="1.000000"/>
</svg>
