<svg width="20.000000" height="20.000000" viewBox="0 0 20 20" fill="none" xmlns="http://www.w3.org/2000/svg" xmlns:xlink="http://www.w3.org/1999/xlink">
	<path id="形状结合" d="M16 6.39241C14.7751 4.35959 12.5463 3 10 3C6.13401 3 3 6.134 3 10C3 13.866 6.13401 17 10 17C13.866 17 17 13.866 17 10L16 10C16 13.3137 13.3137 16 10 16C6.68629 16 4 13.3137 4 10C4 6.68629 6.68629 4 10 4C12.2208 4 14.1599 5.20659 15.1973 7L12 7L12 8L17 8L17 3L16 3L16 6.39241Z" clip-rule="evenodd" fill-rule="evenodd" fill="#000000" fill-opacity="1.000000"/>
</svg>
