<svg width="20.000000" height="20.000000" viewBox="0 0 20 20" fill="none" xmlns="http://www.w3.org/2000/svg" xmlns:xlink="http://www.w3.org/1999/xlink">
	<path id="形状结合" d="M14 4C14 3.44771 13.5523 3 13 3L4 3C3.44772 3 3 3.44771 3 4L3 16C3 16.5523 3.44772 17 4 17L15 17C16.1046 17 17 16.1046 17 15L17 9C17 8.44771 16.5523 8 16 8L14 8L14 4ZM13.2676 16L4 16L4 4L13 4L13 15C13 15.3643 13.0974 15.7058 13.2676 16ZM9 7L6 7L6 8L9 8L9 7ZM15 16C15.5523 16 16 15.5523 16 15L16 9L14 9L14 15L14.0067 15.1166C14.0645 15.614 14.4872 16 15 16ZM6 11L11 11L11 12L6 12L6 11Z" clip-rule="evenodd" fill-rule="evenodd" fill="#000000" fill-opacity="1.000000"/>
</svg>
