<svg width="20.000000" height="20.000000" viewBox="0 0 20 20" fill="none" xmlns="http://www.w3.org/2000/svg" xmlns:xlink="http://www.w3.org/1999/xlink">
	<path id="形状结合" d="M13 3L4 3C3.44772 3 3 3.44771 3 4L3 16C3 16.5523 3.44772 17 4 17L15 17C14.4477 17 14 16.5523 14 16L14 4C14 3.44771 13.5523 3 13 3ZM9 7L6 7L6 8L9 8L9 7ZM15 8L16 8C16.5523 8 17 8.44771 17 9L17 15C17 15.5523 16.5523 16 16 16C15.4477 16 15 15.5523 15 15L15 8ZM6 11L11 11L11 12L6 12L6 11Z" clip-rule="evenodd" fill-rule="evenodd" fill="#000000" fill-opacity="1.000000"/>
</svg>
