<svg width="20.000000" height="20.000000" viewBox="0 0 20 20" fill="none" xmlns="http://www.w3.org/2000/svg" xmlns:xlink="http://www.w3.org/1999/xlink">
	<path id="形状结合" d="M10 2C14.4183 2 18 5.58173 18 10C18 14.4183 14.4183 18 10 18C5.58173 18 2 14.4183 2 10C2 5.58173 5.58173 2 10 2ZM10 17C13.866 17 17 13.866 17 10C17 6.134 13.866 3 10 3C6.134 3 3 6.134 3 10C3 13.866 6.134 17 10 17ZM13 9.9962L8.4038 14.5924L7.69669 13.8853L11.5851 9.9969L7.69669 6.10712L8.4038 5.40001L13 9.9962Z" clip-rule="evenodd" fill-rule="evenodd" fill="#000000" fill-opacity="1.000000"/>
</svg>
