<svg width="20.000000" height="20.000000" viewBox="0 0 20 20" fill="none" xmlns="http://www.w3.org/2000/svg" xmlns:xlink="http://www.w3.org/1999/xlink">
	<path id="形状结合" d="M15 2C15.5523 2 16 2.44772 16 3L16 17C16 17.5523 15.5523 18 15 18L5 18C4.44769 18 4 17.5523 4 17L4 3C4 2.44772 4.44769 2 5 2L15 2ZM5 3L15 3L15 17L5 17L5 3ZM10 4L10 8L8 9L6 8L6 4L10 4ZM9 5L7 5L7 7.38199L8 7.88101L9 7.38101L9 5ZM9 12L14 12L14 13L9 13L9 12ZM14 14L9 14L9 15L14 15L14 14Z" clip-rule="evenodd" fill-rule="evenodd" fill="#000000" fill-opacity="1.000000"/>
</svg>
