<svg width="20.000000" height="20.000000" viewBox="0 0 20 20" fill="none" xmlns="http://www.w3.org/2000/svg" xmlns:xlink="http://www.w3.org/1999/xlink">
	<path id="形状结合" d="M10 2C12.2091 2 14 3.79086 14 6C14 8.20914 12.2091 10 10 10C7.79086 10 6 8.20914 6 6C6 3.79086 7.79086 2 10 2ZM10 3C8.34314 3 7 4.34314 7 6C7 7.65686 8.34314 9 10 9C11.6569 9 13 7.65686 13 6C13 4.34314 11.6569 3 10 3ZM12 11L8 11C5.23859 11 3 13.2386 3 16L3 17L17 17L17 16C17 13.2386 14.7614 11 12 11ZM9.52084 12L8 12C5.79086 12 4 13.7909 4 16L16 16C16 13.8578 14.316 12.1089 12.1996 12.0049L12 12L10.4792 12L11 14.5L10 15.5L9 14.5L9.52084 12Z" clip-rule="evenodd" fill-rule="evenodd" fill="#000000" fill-opacity="1.000000"/>
</svg>
