<svg width="20.000000" height="20.000000" viewBox="0 0 20 20" fill="none" xmlns="http://www.w3.org/2000/svg" xmlns:xlink="http://www.w3.org/1999/xlink">
	<path id="形状结合" d="M13.3523 3L4 3C3.44772 3 3 3.44771 3 4L3 16C3 16.5523 3.44772 17 4 17L16 17C16.5523 17 17 16.5523 17 16L17 6.69191C17 6.42957 16.8969 6.17773 16.7129 5.99069L14.0653 3.29878C13.8773 3.10765 13.6204 3 13.3523 3ZM6 4L12 4L12 9L6 9L6 4ZM12 11L6 11L6 12L12 12L12 11Z" clip-rule="evenodd" fill-rule="evenodd" fill="#000000" fill-opacity="1.000000"/>
</svg>
