<svg width="20.000000" height="20.000000" viewBox="0 0 20 20" fill="none" xmlns="http://www.w3.org/2000/svg" xmlns:xlink="http://www.w3.org/1999/xlink">
	<path id="形状结合" d="M13.3523 3C13.6204 3 13.8773 3.10765 14.0653 3.29878L16.7129 5.99069C16.8969 6.17773 17 6.42957 17 6.69191L17 16C17 16.5523 16.5523 17 16 17L4 17C3.44772 17 3 16.5523 3 16L3 4C3 3.44771 3.44772 3 4 3L13.3523 3ZM4 4L6 4L6 9L12 9L12 4L13.3523 4L16 6.69191L16 16L4 16L4 4ZM7 4L11 4L11 8L7 8L7 4ZM12 11L6 11L6 12L12 12L12 11Z" clip-rule="evenodd" fill-rule="evenodd" fill="#000000" fill-opacity="1.000000"/>
</svg>
