<svg width="20.000000" height="20.000000" viewBox="0 0 20 20" fill="none" xmlns="http://www.w3.org/2000/svg" xmlns:xlink="http://www.w3.org/1999/xlink">
	<path id="形状结合" d="M14 9C14 6.23859 11.7614 4 9 4C6.23857 4 4 6.23859 4 9C4 11.7614 6.23857 14 9 14C10.2006 14 11.3024 13.5768 12.1644 12.8715L15.6464 16.3535L16.3536 15.6465L12.8715 12.1644C13.5768 11.3024 14 10.2006 14 9ZM5 9C5 6.79086 6.79086 5 9 5C11.2091 5 13 6.79086 13 9C13 11.2091 11.2091 13 9 13C6.79086 13 5 11.2091 5 9Z" clip-rule="evenodd" fill-rule="evenodd" fill="#000000" fill-opacity="1.000000"/>
</svg>
