<svg width="20.000000" height="20.000000" viewBox="0 0 20 20" fill="none" xmlns="http://www.w3.org/2000/svg" xmlns:xlink="http://www.w3.org/1999/xlink">
	<path id="形状结合" d="M14.9 7L14.5 7C13.9477 7 13.5 7.44772 13.5 8L13.5 13C13.5 13.5523 13.9477 14 14.5 14L14.584 14C14.1073 15.091 13.2526 15.979 12.1854 16.4984C12.0122 16.2004 11.6896 16 11.3201 16L10.3201 16C9.76779 16 9.32008 16.4477 9.32008 17C9.32008 17.4403 9.60469 17.8142 10 17.9477L10 18L10.2249 17.9958L10.2275 17.9958C10.258 17.9986 10.2888 18 10.3201 18L11.3201 18C11.6379 18 11.9211 17.8517 12.1042 17.6207C13.7619 16.9998 15.0717 15.6666 15.6608 13.9936C16.6902 13.9117 17.5 13.0504 17.5 12L17.5 9C17.5 8.04108 16.8251 7.23975 15.9244 7.04514C15.4671 4.18524 12.9887 2 10 2C7.01126 2 4.53291 4.18524 4.07556 7.04514C3.17487 7.23978 2.5 8.04108 2.5 9L2.5 12C2.5 13.1046 3.39543 14 4.5 14L5.5 14C6.05229 14 6.5 13.5523 6.5 13L6.5 8C6.5 7.44772 6.05229 7 5.5 7L5.10002 7C5.56328 4.71777 7.58104 3 10 3C12.419 3 14.4367 4.71777 14.9 7ZM5.5 8L4.5 8C3.94771 8 3.5 8.44772 3.5 9L3.5 12L3.50673 12.1166C3.5645 12.614 3.98717 13 4.5 13L5.5 13L5.5 8ZM15.5 8L14.5 8L14.5 13L15.5 13C16.0128 13 16.4355 12.614 16.4933 12.1166L16.5 12L16.5 9C16.5 8.44772 16.0523 8 15.5 8Z" clip-rule="evenodd" fill-rule="evenodd" fill="#000000" fill-opacity="1.000000"/>
</svg>
