<svg width="20.000000" height="20.000000" viewBox="0 0 20 20" fill="none" xmlns="http://www.w3.org/2000/svg" xmlns:xlink="http://www.w3.org/1999/xlink">
	<path id="形状结合" d="M10 2C13.1858 2 15.7916 4.48285 15.9881 7.61908C16.9016 8.25064 17.5 9.30542 17.5 10.5C17.5 11.7696 16.824 12.8813 15.8123 13.4949C15.3238 15.3997 13.9236 16.9392 12.1042 17.6207C11.921 17.8518 11.6378 18 11.3201 18L10.3201 18C10.2888 18 10.2579 17.9986 10.2274 17.9958L10.2249 17.9958L10 18L10 17.9477C9.60468 17.8142 9.32007 17.4403 9.32007 17C9.32007 16.4477 9.76779 16 10.3201 16L11.3201 16C11.6895 16 12.0122 16.2004 12.1854 16.4984C13.2696 15.9707 14.1345 15.0626 14.6065 13.9476C14.4095 13.9821 14.2068 14 14 14L13.5396 14C13.5177 14 13.5 13.9823 13.5 13.9604L13.5 7.5C13.5 7.22385 13.7238 7 14 7C14.3196 7 14.6292 7.04285 14.9234 7.12308C14.5088 4.77982 12.4622 3 10 3C7.58102 3 5.56329 4.71777 5.10001 7L4.5 7C4.35437 7 4.21234 7.01556 4.07556 7.04514C4.53293 4.18524 7.01126 2 10 2ZM6.5 7.5C6.5 7.22385 6.27615 7 6 7C4.06702 7 2.5 8.56702 2.5 10.5C2.5 12.433 4.06702 14 6 14L6.46039 14C6.48227 14 6.5 13.9823 6.5 13.9604L6.5 7.5Z" clip-rule="evenodd" fill-rule="evenodd" fill="#000000" fill-opacity="1.000000"/>
</svg>
