<svg width="20.000000" height="20.000000" viewBox="0 0 20 20" fill="none" xmlns="http://www.w3.org/2000/svg" xmlns:xlink="http://www.w3.org/1999/xlink">
	<path id="形状结合" d="M8.28548 2.1861C7.82648 2.28615 7.52547 2.69534 7.49547 3.16559C7.46248 3.68584 7.16048 4.17308 6.65848 4.41721C6.44847 4.52026 6.22447 4.56828 6.00647 4.56828C5.77248 4.56828 5.54248 4.51425 5.33548 4.40921C5.17447 4.32916 5.00047 4.28815 4.82848 4.28815C4.55547 4.28815 4.29047 4.3932 4.09547 4.6053C3.30447 5.47374 2.72447 6.49425 2.37947 7.5878C2.24448 8.01701 2.40848 8.49025 2.79047 8.72736C3.24847 9.0105 3.53748 9.52977 3.49747 10.1051C3.46248 10.6093 3.17947 11.0375 2.77747 11.2796C2.39847 11.5098 2.24448 11.985 2.37648 12.4082C2.54648 12.9525 2.77547 13.4867 3.07347 14.002C3.37047 14.5173 3.71848 14.9835 4.10347 15.4027C4.29747 15.6118 4.56747 15.7269 4.83948 15.7269C4.99448 15.7269 5.14948 15.6898 5.29248 15.6118C5.51247 15.4937 5.75847 15.4317 6.00647 15.4317C6.29347 15.4317 6.58347 15.5148 6.84047 15.6879C7.24147 15.958 7.46848 16.3882 7.49547 16.8364C7.52347 17.3027 7.82347 17.7089 8.27948 17.8109C8.84547 17.936 9.42747 18 10.0115 18C10.5795 18 11.1515 17.939 11.7175 17.8149C12.1765 17.7139 12.4765 17.3047 12.5075 16.8344C12.5405 16.3152 12.8425 15.8269 13.3445 15.5828C13.5545 15.4807 13.7765 15.4317 13.9965 15.4317C14.2295 15.4317 14.4605 15.4857 14.6675 15.5908C14.8285 15.6708 15.0035 15.7119 15.1745 15.7119C15.4465 15.7119 15.7125 15.6078 15.9065 15.3947C16.6985 14.5273 17.2775 13.5058 17.6235 12.4122C17.7585 11.984 17.5945 11.5098 17.2125 11.2736C16.7545 10.9895 16.4655 10.4702 16.5055 9.89595C16.5405 9.3907 16.8215 8.96248 17.2245 8.72037C17.6035 8.49025 17.7585 8.01501 17.6265 7.5918C17.4565 7.04753 17.2265 6.51326 16.9285 5.998C16.6325 5.48274 16.2845 5.0175 15.8985 4.5983C15.7055 4.3882 15.4345 4.27313 15.1635 4.27313C15.0085 4.27313 14.8525 4.31116 14.7105 4.3882C14.4905 4.50626 14.2445 4.56828 13.9965 4.56828C13.7095 4.56828 13.4195 4.48524 13.1625 4.31316C12.7615 4.04202 12.5345 3.6118 12.5075 3.16357C12.4785 2.69734 12.1795 2.29115 11.7225 2.18909C11.1565 2.06403 10.5755 2 9.99147 2C9.42348 2 8.85048 2.06203 8.28548 2.1861ZM11.4885 3.15659C11.0095 3.05753 10.4995 3.0005 9.99147 3.0005C9.49147 3.0005 8.99048 3.05553 8.50348 3.16258C8.50742 3.16258 8.50577 3.16867 8.50272 3.1799C8.49959 3.19142 8.495 3.20834 8.49347 3.22961C8.43648 4.12407 7.90147 4.92346 7.09647 5.31566C6.75348 5.48373 6.38647 5.56879 6.00647 5.56879C5.62047 5.56879 5.23347 5.47774 4.88747 5.30466C4.85847 5.28964 4.83748 5.28865 4.82848 5.28865C4.14647 6.03302 3.64148 6.91046 3.33347 7.88994C4.10847 8.36519 4.55948 9.24663 4.49547 10.1741C4.43947 10.9675 4.00748 11.6888 3.33548 12.1121C3.48647 12.6073 3.68947 13.0695 3.93848 13.5018C4.19048 13.938 4.49347 14.3492 4.83948 14.7244C5.18047 14.5353 5.59247 14.4312 6.00647 14.4312C6.50348 14.4312 6.98547 14.5783 7.39847 14.8584C8.04747 15.2946 8.44548 15.994 8.49347 16.7754C8.49547 16.8154 8.51047 16.8384 8.51347 16.8434C8.99347 16.9435 9.50348 16.9995 10.0115 16.9995C10.5115 16.9995 11.0125 16.9455 11.4995 16.8374C11.4956 16.8374 11.4972 16.8316 11.5002 16.8208C11.5033 16.8096 11.5079 16.7928 11.5095 16.7714C11.5655 15.8759 12.1005 15.0755 12.9055 14.6843C13.2495 14.5163 13.6165 14.4312 13.9965 14.4312C14.3825 14.4312 14.7685 14.5223 15.1145 14.6953C15.1435 14.7104 15.1655 14.7113 15.1745 14.7113C15.8555 13.967 16.3605 13.0895 16.6695 12.1101C15.8935 11.6348 15.4425 10.7534 15.5075 9.82591C15.5625 9.03252 15.9955 8.31215 16.6675 7.88794C16.5155 7.39369 16.3125 6.93047 16.0635 6.49825C15.8115 6.06303 15.5095 5.65082 15.1635 5.27563C14.8215 5.46474 14.4105 5.56879 13.9965 5.56879C13.4995 5.56879 13.0165 5.42171 12.6035 5.14258C11.9555 4.70535 11.5565 4.006 11.5095 3.22562C11.5075 3.18559 11.4925 3.16158 11.4885 3.15659ZM10 7C11.6569 7 13 8.34314 13 10C13 11.6569 11.6569 13 10 13C8.34315 13 7 11.6569 7 10C7 8.34314 8.34315 7 10 7ZM10 8C8.89543 8 8 8.89543 8 10C8 11.1046 8.89543 12 10 12C11.1046 12 12 11.1046 12 10C12 8.89543 11.1046 8 10 8Z" clip-rule="evenodd" fill-rule="evenodd" fill="#000000" fill-opacity="1.000000"/>
</svg>
