<svg width="20.000000" height="20.000000" viewBox="0 0 20 20" fill="none" xmlns="http://www.w3.org/2000/svg" xmlns:xlink="http://www.w3.org/1999/xlink">
	<path id="形状结合" d="M9.99146 2C9.42346 2 8.85046 2.06203 8.28546 2.1861C7.82645 2.28615 7.52545 2.69534 7.49545 3.16559C7.46246 3.68584 7.16046 4.17308 6.65845 4.41721C6.44846 4.52026 6.22446 4.56828 6.00647 4.56828C5.77246 4.56828 5.54245 4.51425 5.33545 4.40921C5.17447 4.32916 5.00046 4.28815 4.82846 4.28815C4.55545 4.28815 4.29047 4.3932 4.09546 4.6053C3.30444 5.47374 2.72446 6.49425 2.37946 7.5878C2.24445 8.01701 2.40845 8.49025 2.79047 8.72736C3.24844 9.0105 3.53745 9.52977 3.49747 10.1051C3.46246 10.6093 3.17944 11.0375 2.77747 11.2796C2.39847 11.5098 2.24445 11.985 2.37646 12.4082C2.54645 12.9525 2.77545 13.4867 3.07346 14.002C3.37045 14.5173 3.71844 14.9835 4.10345 15.4027C4.29745 15.6118 4.56744 15.7269 4.83945 15.7269C4.99445 15.7269 5.14944 15.6898 5.29245 15.6118C5.51245 15.4937 5.75845 15.4317 6.00647 15.4317C6.29346 15.4317 6.58347 15.5148 6.84045 15.6879C7.24146 15.958 7.46844 16.3882 7.49545 16.8364C7.52347 17.3027 7.82346 17.7089 8.27945 17.8109C8.84546 17.936 9.42746 18 10.0114 18C10.5795 18 11.1515 17.939 11.7175 17.8149C12.1765 17.7139 12.4765 17.3047 12.5074 16.8344C12.5405 16.3152 12.8425 15.8269 13.3445 15.5828C13.5544 15.4807 13.7765 15.4317 13.9965 15.4317C14.2295 15.4317 14.4604 15.4857 14.6674 15.5908C14.8285 15.6708 15.0034 15.7119 15.1745 15.7119C15.4465 15.7119 15.7125 15.6078 15.9065 15.3947C16.6985 14.5273 17.2775 13.5058 17.6234 12.4122C17.7585 11.984 17.5945 11.5098 17.2125 11.2736C16.7545 10.9895 16.4655 10.4702 16.5055 9.89595C16.5405 9.3907 16.8215 8.96248 17.2245 8.72037C17.6035 8.49025 17.7585 8.01501 17.6265 7.5918C17.4565 7.04753 17.2265 6.51326 16.9285 5.998C16.6324 5.48274 16.2845 5.0175 15.8985 4.5983C15.7054 4.3882 15.4344 4.27313 15.1635 4.27313C15.0085 4.27313 14.8524 4.31116 14.7104 4.3882C14.4904 4.50626 14.2444 4.56828 13.9965 4.56828C13.7095 4.56828 13.4195 4.48524 13.1624 4.31316C12.7614 4.04202 12.5345 3.6118 12.5074 3.16357C12.4785 2.69734 12.1794 2.29115 11.7225 2.18909C11.1565 2.06403 10.5755 2 9.99146 2ZM10 7C11.6568 7 13 8.34314 13 10C13 11.6569 11.6568 13 10 13C8.34314 13 7 11.6569 7 10C7 8.34314 8.34314 7 10 7ZM10 8C8.89542 8 8 8.89543 8 10C8 11.1046 8.89542 12 10 12C11.1046 12 12 11.1046 12 10C12 8.89543 11.1046 8 10 8Z" clip-rule="evenodd" fill-rule="evenodd" fill="#000000" fill-opacity="1.000000"/>
</svg>
