<svg width="20.000000" height="20.000000" viewBox="0 0 20 20" fill="none" xmlns="http://www.w3.org/2000/svg" xmlns:xlink="http://www.w3.org/1999/xlink">
	<path id="形状结合" d="M10 3C6.13401 3 3 6.134 3 10C3 13.866 6.13401 17 10 17C13.866 17 17 13.866 17 10L16 10C16 13.3137 13.3137 16 10 16C6.68629 16 4 13.3137 4 10C4 6.68629 6.68629 4 10 4L10 3ZM17 3L12 3L12 4L15.2929 4L8.76416 10.5287L9.47127 11.2358L16 4.70711L16 8L17 8L17 3Z" clip-rule="evenodd" fill-rule="evenodd" fill="#000000" fill-opacity="1.000000"/>
</svg>
