<svg width="20.000000" height="20.000000" viewBox="0 0 20 20" fill="none" xmlns="http://www.w3.org/2000/svg" xmlns:xlink="http://www.w3.org/1999/xlink">
	<path id="形状结合" d="M4.28418 3L15.7158 3C16.3585 3 16.9012 3.47737 16.9831 4.11461L17.4109 7.45955C17.4699 7.68892 17.5 7.92603 17.5 8.16667C17.5 9.0323 17.1118 9.80728 16.5 10.327L16.5 16C16.5 16.5523 16.0523 17 15.5 17L4.5 17C3.94771 17 3.5 16.5523 3.5 16L3.5 10.327C2.8882 9.80728 2.5 9.0323 2.5 8.16667C2.5 7.92264 2.53098 7.68225 2.57948 7.51224L3.01683 4.11484C3.09879 3.47737 3.64148 3 4.28418 3ZM4.5 10.8755L4.5 16L15.5 16L15.5 10.8755C15.2365 10.9564 14.9567 11 14.6667 11C13.7394 11 12.9161 10.5545 12.3992 9.86594L12.333 9.77299L12.2674 9.86594C11.7829 10.5115 11.029 10.9434 10.1726 10.9948L10 11C9.07271 11 8.24945 10.5545 7.73257 9.86594L7.666 9.77299L7.60075 9.86594C7.11618 10.5115 6.36234 10.9434 5.50594 10.9948L5.33333 11C5.04332 11 4.76347 10.9564 4.5 10.8755ZM4.28418 4L15.7158 4C15.8555 4 15.9735 4.10378 15.9913 4.24236L16.4308 7.64801C16.4805 7.85672 16.5 8.01019 16.5 8.16667C16.5 9.17918 15.6792 10 14.6667 10C13.6541 10 12.8333 9.17918 12.8333 8.16667L11.8333 8.16667C11.8333 9.17918 11.0125 10 10 10C8.98747 10 8.16667 9.17918 8.16667 8.16667L7.16667 8.16667C7.16667 9.17918 6.34586 10 5.33333 10C4.32082 10 3.5 9.17918 3.5 8.16667C3.5 8.008 3.52005 7.8524 3.5592 7.70227L4.00867 4.24243C4.02649 4.10378 4.14445 4 4.28418 4Z" clip-rule="evenodd" fill-rule="evenodd" fill="#000000" fill-opacity="1.000000"/>
</svg>
