<svg width="20.000000" height="20.000000" viewBox="0 0 20 20" fill="none" xmlns="http://www.w3.org/2000/svg" xmlns:xlink="http://www.w3.org/1999/xlink">
	<path id="形状结合" d="M17 9L17 3L3 3L3 11.1802L3.0069 11.2978C3.05701 11.7231 3.37543 12.0751 3.80389 12.1608L7.19611 12.8392L7.31012 12.869C7.71729 13.0016 8 13.3828 8 13.8198L8 16L8.00671 16.1166C8.06451 16.614 8.48718 17 9 17L11 17L11.1166 16.9933C11.614 16.9355 12 16.5128 12 16L12 13.8198L12.0069 13.7021C12.057 13.2769 12.3754 12.9249 12.8039 12.8392L16.1961 12.1608L16.3101 12.131C16.7173 11.9984 17 11.6172 17 11.1802L17 9ZM16 9L4 9L4 11.1802L7.39221 11.8586C8.27515 12.0352 8.92444 12.7772 8.99384 13.6622L9 13.8198L9 16L11 16L11 13.8198C11 12.9194 11.6002 12.1372 12.4545 11.8956L12.6078 11.8586L16 11.1802L16 9ZM16 8L16 4L4 4L4 8L16 8Z" clip-rule="evenodd" fill-rule="evenodd" fill="#000000" fill-opacity="1.000000"/>
</svg>
