<svg width="20.000000" height="20.000000" viewBox="0 0 20 20" fill="none" xmlns="http://www.w3.org/2000/svg" xmlns:xlink="http://www.w3.org/1999/xlink">
	<path id="形状结合" d="M3 9L3 11.1802C3 11.6569 3.33649 12.0673 3.80389 12.1608L7.19611 12.8392C7.66351 12.9327 8 13.3431 8 13.8198L8 16C8 16.5523 8.44769 17 9 17L11 17C11.5523 17 12 16.5523 12 16L12 13.8198C12 13.3431 12.3365 12.9327 12.8039 12.8392L16.1961 12.1608C16.6635 12.0673 17 11.6569 17 11.1802L17 9L3 9ZM3 8L17 8L17 3L3 3L3 8Z" clip-rule="evenodd" fill-rule="evenodd" fill="#000000" fill-opacity="1.000000"/>
</svg>
