<svg width="20.000000" height="20.000000" viewBox="0 0 20 20" fill="none" xmlns="http://www.w3.org/2000/svg" xmlns:xlink="http://www.w3.org/1999/xlink">
	<path id="形状结合" d="M4.28418 3L15.7158 3C16.3585 3 16.9012 3.47737 16.9831 4.11461L17.4109 7.45955C17.4699 7.68892 17.5 7.92603 17.5 8.16667C17.5 9.0323 17.1118 9.80728 16.5 10.327L16.5 16C16.5 16.5523 16.0523 17 15.5 17L4.5 17C3.94772 17 3.5 16.5523 3.5 16L3.5 10.327C2.88818 9.80728 2.5 9.0323 2.5 8.16667C2.5 7.92264 2.53098 7.68225 2.57947 7.51224L3.01685 4.11484C3.09879 3.47737 3.64148 3 4.28418 3ZM4.5 10.8755L4.5 16L15.5 16L15.5 10.8755C15.2365 10.9564 14.9567 11 14.6667 11C13.7394 11 12.9161 10.5545 12.3992 9.86594L12.333 9.77299L12.2674 9.86594C11.7828 10.5115 11.029 10.9434 10.1726 10.9948L10 11C9.07269 11 8.24945 10.5545 7.73257 9.86594L7.66599 9.77299L7.60077 9.86594C7.11618 10.5115 6.36234 10.9434 5.50592 10.9948L5.33334 11C5.0433 11 4.76349 10.9564 4.5 10.8755Z" clip-rule="evenodd" fill-rule="evenodd" fill="#000000" fill-opacity="1.000000"/>
</svg>
