<svg width="20.000000" height="20.000000" viewBox="0 0 20 20" fill="none" xmlns="http://www.w3.org/2000/svg" xmlns:xlink="http://www.w3.org/1999/xlink">
	<path id="形状结合" d="M4.28418 3L15.7158 3C16.3585 3 16.9012 3.47739 16.9831 4.11459L17.4109 7.45953C17.4699 7.68893 17.5 7.92603 17.5 8.16666C17.5 9.73148 16.2315 11 14.6667 11C13.7394 11 12.9161 10.5545 12.3992 9.86594L12.333 9.77301L12.2674 9.86594C11.7828 10.5115 11.029 10.9434 10.1726 10.9948L10 11C9.07269 11 8.24945 10.5545 7.73257 9.86594L7.66599 9.77301L7.60077 9.86594C7.11618 10.5115 6.36234 10.9434 5.50592 10.9948L5.33334 11C5.0433 11 4.76349 10.9564 4.5 10.8755L4.5 16L15 16L15 17L4.5 17C3.94772 17 3.5 16.5523 3.5 16L3.5 10.327C2.88818 9.80728 2.5 9.03232 2.5 8.16666C2.5 7.92264 2.53098 7.68225 2.57947 7.51224L3.01685 4.11484C3.09879 3.47739 3.64148 3 4.28418 3ZM4.28418 4L15.7158 4C15.8555 4 15.9735 4.10379 15.9913 4.24234L16.4308 7.64801C16.4805 7.85672 16.5 8.01019 16.5 8.16666C16.5 9.1792 15.6792 10 14.6667 10C13.6541 10 12.8333 9.1792 12.8333 8.16666L11.8333 8.16666C11.8333 9.1792 11.0125 10 10 10C8.98749 10 8.16666 9.1792 8.16666 8.16666L7.16666 8.16666C7.16666 9.1792 6.34586 10 5.33334 10C4.3208 10 3.5 9.1792 3.5 8.16666C3.5 8.008 3.52005 7.85242 3.5592 7.70227L4.00867 4.24243C4.02649 4.10379 4.14447 4 4.28418 4ZM12.8007 11.86L10.6361 14.1571L11.3639 14.8429L12.968 13.14L16.1993 15.14L18.3639 12.8429L17.6361 12.1571L16.031 13.859L12.8007 11.86Z" clip-rule="evenodd" fill-rule="evenodd" fill="#000000" fill-opacity="1.000000"/>
</svg>
