<svg width="20.000000" height="20.000000" viewBox="0 0 20 20" fill="none" xmlns="http://www.w3.org/2000/svg" xmlns:xlink="http://www.w3.org/1999/xlink">
	<path id="形状结合" d="M16.863 8.21188C15.4644 6.74014 12.9142 5 10 5C7.08582 5 4.53557 6.74014 3.13695 8.21188L2.88084 8.49283C2.3178 9.13806 2 9.70212 2 10C2 10.2979 2.3178 10.8619 2.88084 11.5072L3.13695 11.7881C4.53557 13.2599 7.08582 15 10 15C12.9142 15 15.4644 13.2599 16.863 11.7881L17.1192 11.5072C17.6822 10.8619 18 10.2979 18 10C18 9.70212 17.6822 9.13806 17.1192 8.49283L16.863 8.21188ZM4.95675 7.91461C6.4907 6.7226 8.26122 6 10 6C11.7388 6 13.5093 6.7226 15.0433 7.91461C15.6636 8.39667 16.2024 8.92737 16.5848 9.4144L16.7315 9.6109C16.7535 9.64169 16.7741 9.67133 16.7934 9.69958L16.993 10L16.9827 10.0133L16.8475 10.2201L16.7315 10.3891L16.5848 10.5856C16.2024 11.0726 15.6636 11.6033 15.0433 12.0854C13.5093 13.2774 11.7388 14 10 14C8.26122 14 6.4907 13.2774 4.95675 12.0854C4.33642 11.6033 3.7976 11.0726 3.41523 10.5856L3.26846 10.3891C3.24654 10.3583 3.2259 10.3287 3.20657 10.3004L3.006 10L3.01729 9.98666L3.15253 9.77991L3.26846 9.6109L3.41523 9.4144C3.7976 8.92737 4.33642 8.39667 4.95675 7.91461ZM10 7C11.6569 7 13 8.34314 13 10C13 11.6569 11.6569 13 10 13C8.34315 13 7 11.6569 7 10C7 8.34314 8.34315 7 10 7ZM10 8C8.89543 8 8 8.89542 8 10C8 11.1046 8.89543 12 10 12C11.1046 12 12 11.1046 12 10C12 8.89542 11.1046 8 10 8Z" clip-rule="evenodd" fill-rule="evenodd" fill="#000000" fill-opacity="1.000000"/>
</svg>
