<svg width="20.000000" height="20.000000" viewBox="0 0 20 20" fill="none" xmlns="http://www.w3.org/2000/svg" xmlns:xlink="http://www.w3.org/1999/xlink">
	<path id="形状结合" d="M18 10C18 11 14.4183 15 10 15C5.58172 15 2 11 2 10C2 9 5.58172 5 10 5C14.4183 5 18 9 18 10ZM10 7C11.6569 7 13 8.34314 13 10C13 11.6569 11.6569 13 10 13C8.34315 13 7 11.6569 7 10C7 8.34314 8.34315 7 10 7ZM10 8C8.89543 8 8 8.89542 8 10C8 11.1046 8.89543 12 10 12C11.1046 12 12 11.1046 12 10C12 8.89542 11.1046 8 10 8Z" clip-rule="evenodd" fill-rule="evenodd" fill="#000000" fill-opacity="1.000000"/>
</svg>
