<svg width="20.000000" height="20.000000" viewBox="0 0 20 20" fill="none" xmlns="http://www.w3.org/2000/svg" xmlns:xlink="http://www.w3.org/1999/xlink">
	<path id="形状结合" d="M10.5 1L9.5 1L9.5 8L10.5 8L10.5 1ZM6.47583 3.81506L6.0052 3L5.77019 3.14108C3.44884 4.58881 2 7.1347 2 9.93268C2 14.351 5.58173 17.9327 10 17.9327C14.4183 17.9327 18 14.351 18 9.93268C18 7.04333 16.455 4.42273 13.9994 3.00269L13.5283 3.81741L13.7496 3.95084C15.7882 5.23065 17.0588 7.47073 17.0588 9.93268C17.0588 13.8311 13.8985 16.9915 10 16.9915C6.10152 16.9915 2.94118 13.8311 2.94118 9.93268C2.94118 7.38113 4.30595 5.06796 6.47583 3.81506Z" clip-rule="evenodd" fill-rule="evenodd" fill="#000000" fill-opacity="1.000000"/>
</svg>
