<svg width="20.000000" height="20.000000" viewBox="0 0 20 20" fill="none" xmlns="http://www.w3.org/2000/svg" xmlns:xlink="http://www.w3.org/1999/xlink">
	<path id="形状结合" d="M18 10C18 5.58173 14.4183 2 10 2C5.58173 2 2 5.58173 2 10C2 14.4183 5.58173 18 10 18C14.4183 18 18 14.4183 18 10ZM3 10C3 6.134 6.134 3 10 3C13.866 3 17 6.134 17 10C17 13.866 13.866 17 10 17C6.134 17 3 13.866 3 10ZM6.79999 9.20001C7.24142 9.20001 7.60001 8.66214 7.60001 8C7.60001 7.33786 7.24142 6.79999 6.79999 6.79999C6.35858 6.79999 6 7.33786 6 8C6 8.66214 6.35858 9.20001 6.79999 9.20001ZM13.2 9.20001C13.6414 9.20001 14 8.66214 14 8C14 7.33786 13.6414 6.79999 13.2 6.79999C12.7586 6.79999 12.4 7.33786 12.4 8C12.4 8.66214 12.7586 9.20001 13.2 9.20001ZM7.93164 12.0258L7.5575 11.6942L6.89417 12.4425L7.26834 12.7742L7.34903 12.8417C7.49802 12.9599 7.71909 13.1053 8.00696 13.248C9.36682 13.9221 10.9757 13.9221 12.6725 12.8192L13.0917 12.5467L12.5467 11.7083L12.1275 11.9808L11.9108 12.115C10.6178 12.8764 9.45599 12.8502 8.45114 12.352C8.1915 12.2233 8.0134 12.0983 7.93164 12.0258Z" clip-rule="evenodd" fill-rule="evenodd" fill="#000000" fill-opacity="1.000000"/>
</svg>
