<svg width="20.000000" height="20.000000" viewBox="0 0 20 20" fill="none" xmlns="http://www.w3.org/2000/svg" xmlns:xlink="http://www.w3.org/1999/xlink">
	<path id="Path" d="M9.88885 3.12396C10.1112 3.02002 10.3711 3.09381 10.5082 3.2872L10.5536 3.3652L12.1743 6.83282L16.142 7.44159C16.2448 7.45734 16.34 7.50473 16.4146 7.57718C16.5906 7.74823 16.6138 8.01733 16.4816 8.21414L16.4248 8.28421L13.5269 11.2668L14.1749 15.2564C14.193 15.3673 14.1731 15.4811 14.1186 15.5793C13.9995 15.7939 13.7457 15.8865 13.5212 15.8104L13.4387 15.7738L10.1006 13.9207L6.76242 15.7738C6.66422 15.8283 6.55048 15.8481 6.43958 15.8301C6.1973 15.7908 6.02414 15.5835 6.01974 15.3465L6.02621 15.2564L6.67426 11.2668L3.77637 8.28421C3.70395 8.20966 3.65652 8.11438 3.64078 8.01163C3.60355 7.76901 3.74741 7.54041 3.97156 7.46317L4.05917 7.44159L8.02686 6.83282L9.64761 3.3652C9.69727 3.259 9.78265 3.17361 9.88885 3.12396ZM8.93277 7.25626L10.1 4.75699L11.2684 7.25626L11.3279 7.36526C11.4812 7.60913 11.7339 7.77695 12.0226 7.82126L15.031 8.28299L12.8097 10.57L12.7327 10.6592C12.5665 10.8763 12.4955 11.1539 12.5398 11.4272L13.022 14.398L10.5859 13.0464L10.4699 12.9914C10.1933 12.8814 9.87936 12.8997 9.61523 13.0464L7.17798 14.399L7.66132 11.4272L7.67334 11.31C7.68515 11.0368 7.58441 10.7686 7.39148 10.57L5.16898 8.28299L8.17853 7.82126L8.29987 7.79483C8.577 7.71622 8.80911 7.52087 8.93277 7.25626Z" clip-rule="evenodd" fill-rule="evenodd" fill="#000000" fill-opacity="1.000000"/>
</svg>
