<svg width="20.000000" height="20.000000" viewBox="0 0 20 20" fill="none" xmlns="http://www.w3.org/2000/svg" xmlns:xlink="http://www.w3.org/1999/xlink">
	<path id="形状结合" d="M10 3C13.3137 3 16 5.68628 16 9C16 12.3137 13.3137 15 10 15C6.68628 15 4 12.3137 4 9C4 5.68628 6.68628 3 10 3ZM10 15L12 15L12 16L8 16L8 15L10 15ZM10 4C7.23859 4 5 6.23859 5 9C5 11.5927 6.97333 13.7245 9.5 13.9753L9.5 11L8 11L8 10L12 10L12 11L10.5 11L10.5 13.9753C13.0267 13.7245 15 11.5927 15 9C15 6.23859 12.7614 4 10 4ZM12 17L8 17L8 18L12 18L12 17Z" clip-rule="evenodd" fill-rule="evenodd" fill="#000000" fill-opacity="1.000000"/>
</svg>
