<svg width="20.000000" height="20.000000" viewBox="0 0 20 20" fill="none" xmlns="http://www.w3.org/2000/svg" xmlns:xlink="http://www.w3.org/1999/xlink">
	<path id="形状结合" d="M18 10C18 5.58173 14.4183 2 10 2C5.58173 2 2 5.58173 2 10C2 14.4183 5.58173 18 10 18C14.4183 18 18 14.4183 18 10ZM3 10C3 6.134 6.134 3 10 3C13.866 3 17 6.134 17 10C17 13.866 13.866 17 10 17C6.134 17 3 13.866 3 10ZM14.3448 7.86206L13.6552 7.13794L8.74899 11.809L6.34483 9.51889L5.65517 10.243L8.75 13.1905L14.3448 7.86206Z" clip-rule="evenodd" fill-rule="evenodd" fill="#000000" fill-opacity="1.000000"/>
</svg>
