<svg width="20.000000" height="20.000000" viewBox="0 0 20 20" fill="none" xmlns="http://www.w3.org/2000/svg" xmlns:xlink="http://www.w3.org/1999/xlink">
	<path id="形状结合" d="M15.9931 4.35553C15.9204 3.59488 15.2797 3 14.5 3L5.5 3L5.35553 3.00687C4.59488 3.07956 4 3.72031 4 4.5L4 8.45752C3.44772 8.45752 3 8.90524 3 9.45752L3 16C3 16.5523 3.44772 17 4 17L16 17C16.5523 17 17 16.5523 17 16L17 9.45752C17 9.33447 16.9773 9.21246 16.933 9.09766C16.7799 8.70078 16.4013 8.45734 16 8.45724L16 4.5L15.9931 4.35553ZM15 8.77142L15 4.5C15 4.25455 14.8231 4.05038 14.5899 4.00806L14.5 4L5.5 4C5.25455 4 5.05038 4.17688 5.00806 4.41013L5 4.5L5 8.77142L10 10.7L15 8.77142ZM12 5.5L12 6.5L6 6.5L6 5.5L12 5.5ZM10 8.5L10 7.5L6 7.5L6 8.5L10 8.5ZM4.11145 9.5L10 11.7718L15.8899 9.5L16 9.5L16 16L4 16L4 9.5L4.11145 9.5Z" clip-rule="evenodd" fill-rule="evenodd" fill="#000000" fill-opacity="1.000000"/>
</svg>
