<svg width="20.000000" height="20.000000" viewBox="0 0 20 20" fill="none" xmlns="http://www.w3.org/2000/svg" xmlns:xlink="http://www.w3.org/1999/xlink">
	<path id="形状结合" d="M8 3L9 3L9 4L11 4L11 3L12 3L12 4L16 4C16.5523 4 17 4.44771 17 5L17 13C17 13.5523 16.5523 14 16 14L12.0858 14L14.6213 16.5355L13.9142 17.2426L10.6716 14L9.32843 14L6.08578 17.2426L5.37868 16.5355L7.91422 14L4 14C3.44771 14 3 13.5523 3 13L3 5C3 4.44771 3.44771 4 4 4L8 4L8 3ZM4 13L16 13L16 5L4 5L4 13ZM8.30069 7.35999L6.13611 9.6571L6.86389 10.3429L8.468 8.64L11.6993 10.64L13.8639 8.3429L13.1361 7.6571L11.531 9.35899L8.30069 7.35999Z" clip-rule="evenodd" fill-rule="evenodd" fill="#000000" fill-opacity="1.000000"/>
</svg>
