<svg width="20.000000" height="20.000000" viewBox="0 0 20 20" fill="none" xmlns="http://www.w3.org/2000/svg" xmlns:xlink="http://www.w3.org/1999/xlink">
	<path id="形状结合" d="M9 4C9 3.44772 8.55228 3 8 3L4 3C3.44771 3 3 3.44772 3 4L3 8C3 8.55228 3.44771 9 4 9L8 9C8.55228 9 9 8.55228 9 8L9 4ZM17 3.5L17 4.5L11 4.5L11 3.5L17 3.5ZM4 4L8 4L8 8L4 8L4 4ZM17 7L17 8L11 8L11 7L17 7ZM8 11C8.55228 11 9 11.4477 9 12L9 16C9 16.5523 8.55228 17 8 17L4 17C3.44771 17 3 16.5523 3 16L3 12C3 11.4477 3.44771 11 4 11L8 11ZM8 12L4 12L4 16L8 16L8 12ZM17 13L17 12L11 12L11 13L17 13ZM17 16.5L17 15.5L11 15.5L11 16.5L17 16.5Z" clip-rule="evenodd" fill-rule="evenodd" fill="#000000" fill-opacity="1.000000"/>
</svg>
