<svg width="20.000000" height="20.000000" viewBox="0 0 20 20" fill="none" xmlns="http://www.w3.org/2000/svg" xmlns:xlink="http://www.w3.org/1999/xlink">
	<path id="形状结合" d="M6 3C6.55228 3 7 3.44772 7 4L7 6C7 6.55228 6.55228 7 6 7L4 7C3.44772 7 3 6.55228 3 6L3 4C3 3.44772 3.44772 3 4 3L6 3ZM9 3.5L17 3.5L17 4.5L9 4.5L9 3.5ZM6 4L4 4L4 6L6 6L6 4ZM9 5.5L17 5.5L17 6.5L9 6.5L9 5.5ZM6 8C6.55228 8 7 8.44772 7 9L7 11C7 11.5523 6.55228 12 6 12L4 12C3.44772 12 3 11.5523 3 11L3 9C3 8.44772 3.44772 8 4 8L6 8ZM9 8.5L17 8.5L17 9.5L9 9.5L9 8.5ZM6 9L4 9L4 11L6 11L6 9ZM9 10.5L17 10.5L17 11.5L9 11.5L9 10.5ZM6 13C6.55228 13 7 13.4477 7 14L7 16C7 16.5523 6.55228 17 6 17L4 17C3.44772 17 3 16.5523 3 16L3 14C3 13.4477 3.44772 13 4 13L6 13ZM9 13.5L17 13.5L17 14.5L9 14.5L9 13.5ZM6 14L4 14L4 16L6 16L6 14ZM9 15.5L17 15.5L17 16.5L9 16.5L9 15.5Z" clip-rule="evenodd" fill-rule="evenodd" fill="#000000" fill-opacity="1.000000"/>
</svg>
