<svg width="20.000000" height="20.000000" viewBox="0 0 20 20" fill="none" xmlns="http://www.w3.org/2000/svg" xmlns:xlink="http://www.w3.org/1999/xlink">
	<path id="形状结合" d="M3.00671 4.01834C3.06876 3.44574 3.55375 3 4.14286 3L8 3L8 4L4.14286 4L4.0977 4.00729C4.04094 4.02618 4 4.07974 4 4.14285L4 8L3 8L3 4.14285L3.00671 4.01834ZM15.8571 3C16.4462 3 16.9312 3.44574 16.9933 4.01834L17 4.14285L17 8L16 8L16 4.65677L12.7071 7.94968L12 7.24255L15.2426 4L12 4L12 3L15.8571 3ZM7.94975 12.707L7.24265 11.9999L4 15.2426L4 12L3 12L3 15.8571L3.00671 15.9817C3.06876 16.5543 3.55375 17 4.14286 17L8 17L8 16L4.65678 16L7.94975 12.707ZM16.9933 15.9817C16.9312 16.5543 16.4462 17 15.8571 17L12 17L12 16L15.8571 16L15.9023 15.9927C15.9591 15.9738 16 15.9203 16 15.8571L16 12L17 12L17 15.8571L16.9933 15.9817Z" clip-rule="evenodd" fill-rule="evenodd" fill="#000000" fill-opacity="1.000000"/>
</svg>
