<svg width="20.000000" height="20.000000" viewBox="0 0 20 20" fill="none" xmlns="http://www.w3.org/2000/svg" xmlns:xlink="http://www.w3.org/1999/xlink">
	<path id="形状结合" d="M5 3L7 3L7 4C7 4.55229 7.44772 5 8 5L12 5C12.5523 5 13 4.55229 13 4L13 3L15 3C15.5523 3 16 3.44771 16 4L16 17C16 17.5523 15.5523 18 15 18L5 18C4.44772 18 4 17.5523 4 17L4 4C4 3.44771 4.44772 3 5 3ZM8 3L12 3L12 4L8 4L8 3ZM7 8L13 8L13 9L7 9L7 8ZM11 12L7 12L7 13L11 13L11 12Z" clip-rule="evenodd" fill-rule="evenodd" fill="#000000" fill-opacity="1.000000"/>
</svg>
