<svg width="20.000000" height="20.000000" viewBox="0 0 20 20" fill="none" xmlns="http://www.w3.org/2000/svg" xmlns:xlink="http://www.w3.org/1999/xlink">
	<path id="形状结合" d="M13 3C13 2.44771 12.5523 2 12 2L8 2C7.44772 2 7 2.44771 7 3L5 3C4.44772 3 4 3.44771 4 4L4 17C4 17.5523 4.44772 18 5 18L15 18C15.5523 18 16 17.5523 16 17L16 4C16 3.44771 15.5523 3 15 3L13 3ZM12 3L8 3L8 4L12 4L12 3ZM13 4C13 4.55229 12.5523 5 12 5L8 5C7.44772 5 7 4.55229 7 4L5 4L5 17L15 17L15 4L13 4ZM7 8L13 8L13 9L7 9L7 8ZM11 12L7 12L7 13L11 13L11 12Z" clip-rule="evenodd" fill-rule="evenodd" fill="#000000" fill-opacity="1.000000"/>
</svg>
