<svg width="20.000000" height="20.000000" viewBox="0 0 20 20" fill="none" xmlns="http://www.w3.org/2000/svg" xmlns:xlink="http://www.w3.org/1999/xlink">
	<path id="形状结合" d="M12.5 2.5C9.73859 2.5 7.5 4.73859 7.5 7.5L7.50784 7.78223C7.53394 8.25058 7.62491 8.70792 7.77664 9.14389L7.845 9.32599L3.25735 13.9142C2.47632 14.6953 2.47632 15.9616 3.25735 16.7426L3.38458 16.8595C4.17035 17.5215 5.34586 17.4826 6.08578 16.7426L10.675 12.154L10.857 12.2237C11.3799 12.4055 11.9335 12.5 12.5 12.5C15.2614 12.5 17.5 10.2614 17.5 7.5C17.5 6.7645 17.3408 6.05054 17.0375 5.39716C16.8912 5.08197 16.476 5.00842 16.2303 5.25415L13.9748 7.51047L13.9033 7.57236C13.7301 7.70575 13.4464 7.68909 13.2678 7.51041L12.5607 6.80331L12.4987 6.73169C12.3653 6.55853 12.382 6.27487 12.5607 6.09619L14.8416 3.81543C15.0838 3.5733 15.0164 3.16492 14.7093 3.01346C14.0278 2.67728 13.276 2.5 12.5 2.5ZM13.5386 3.63602C13.2874 3.5687 13.0286 3.52585 12.765 3.50864L12.5 3.5C10.2909 3.5 8.5 5.29086 8.5 7.5C8.5 8.1055 8.63431 8.69092 8.88965 9.22443C8.98117 9.41568 8.94211 9.64389 8.79218 9.79382L3.96445 14.6213C3.57394 15.0118 3.57394 15.645 3.96445 16.0355C4.35498 16.4261 4.98816 16.4261 5.37872 16.0355L10.2072 11.2083C10.3571 11.0584 10.5852 11.0193 10.7765 11.1108C11.3097 11.3658 11.8948 11.5 12.5 11.5C14.7091 11.5 16.5 9.70914 16.5 7.5C16.5 7.24744 16.4766 6.99835 16.4308 6.75504L16.378 6.51901L14.6594 8.23874L14.5411 8.34186C13.9471 8.8038 13.097 8.75385 12.5607 8.21753L11.8323 7.48782L11.7292 7.36957C11.2673 6.77548 11.3172 5.92542 11.8536 5.38907L13.59 3.65201L13.5386 3.63602Z" clip-rule="evenodd" fill-rule="evenodd" fill="#000000" fill-opacity="1.000000"/>
</svg>
