<svg width="20.000000" height="20.000000" viewBox="0 0 20 20" fill="none" xmlns="http://www.w3.org/2000/svg" xmlns:xlink="http://www.w3.org/1999/xlink">
	<path id="形状结合" d="M10 2.5C11.0334 2.5 11.9947 2.95111 12.6552 3.71953C12.8774 3.9781 13.0609 4.26756 13.1993 4.57887L13.2946 4.8163L12.3535 5.15446C12.2505 4.86771 12.0954 4.60246 11.8968 4.37138C11.4243 3.82169 10.7388 3.5 10 3.5C8.67451 3.5 7.58996 4.53154 7.50532 5.83562L7.5 6L7.5 7L15 7C15.5523 7 16 7.44771 16 8L16 16C16 16.5523 15.5523 17 15 17L5 17C4.44772 17 4 16.5523 4 16L4 8C4 7.44771 4.44772 7 5 7L6.5 7L6.5 6C6.5 4.067 8.067 2.5 10 2.5ZM5 8L5 16L15 16L15 8L5 8ZM11.7507 12.5089C11.9169 12.2204 12 11.8842 12 11.5C12 11.2239 11.9512 10.9679 11.8536 10.7322C11.7559 10.4965 11.6095 10.2811 11.4142 10.0858C11.2189 9.89052 11.0035 9.74408 10.7678 9.64645C10.5321 9.54881 10.2761 9.5 10 9.5C9.33334 9.5 8.83334 9.66667 8.5 10C8.16666 10.3333 8 10.8333 8 11.5C8 11.8842 8.08308 12.2204 8.24926 12.5089C8.31844 12.629 8.40202 12.7407 8.5 12.8442L8.5 15L11.5 15L11.5 12.8442C11.598 12.7407 11.6816 12.6289 11.7507 12.5089ZM10.5 12.3662L11.5 12.3662L11.5 12.8442C11.3621 12.9898 11.1957 13.119 11.0007 13.2318L10.5 12.3662ZM10.5 13L9.5 13L9.5 11.7894L9.99928 11.5006L10 11.5L10.0007 11.5006L10.5 11.7894L10.5 13ZM9.5 12.3662L8.5 12.3662L8.5 12.8442C8.6379 12.9898 8.80432 13.119 8.99928 13.2318L9.5 12.3662Z" clip-rule="evenodd" fill-rule="evenodd" fill="#000000" fill-opacity="1.000000"/>
</svg>
