<svg width="20.000000" height="20.000000" viewBox="0 0 20 20" fill="none" xmlns="http://www.w3.org/2000/svg" xmlns:xlink="http://www.w3.org/1999/xlink">
	<path id="形状结合" d="M12.6552 3.71953C11.9947 2.95111 11.0334 2.5 10 2.5C8.067 2.5 6.5 4.067 6.5 6L6.5 7L5 7C4.44772 7 4 7.44771 4 8L4 16C4 16.5523 4.44772 17 5 17L15 17C15.5523 17 16 16.5523 16 16L16 8C16 7.44771 15.5523 7 15 7L7.5 7L7.5 6L7.50532 5.83562C7.58996 4.53154 8.67451 3.5 10 3.5C10.7388 3.5 11.4243 3.82169 11.8968 4.37138C12.0954 4.60246 12.2505 4.86771 12.3535 5.15446L13.2946 4.8163L13.1993 4.57887C13.0609 4.26756 12.8774 3.9781 12.6552 3.71953ZM8.5 12.8442C8.40202 12.7407 8.31844 12.629 8.24926 12.5089C8.08308 12.2204 8 11.8842 8 11.5C8 10.8333 8.16666 10.3333 8.5 10C8.83334 9.66667 9.33334 9.5 10 9.5C10.2761 9.5 10.5321 9.54881 10.7678 9.64645L10.7678 9.64645C11.0035 9.74408 11.219 9.89053 11.4142 10.0858C11.6095 10.281 11.7559 10.4965 11.8535 10.7322L11.8536 10.7322L11.8536 10.7323C11.9512 10.968 12 11.2239 12 11.5C12 11.8842 11.9169 12.2204 11.7507 12.5089C11.6816 12.6289 11.598 12.7407 11.5 12.8442L11.5 12.3662L10.5 12.3662L10.5 11.7894L10.0007 11.5006L10 11.5L9.99928 11.5006L9.5 11.7894L9.5 12.3662L8.5 12.3662L8.5 12.8442ZM8.5 12.8442C8.6379 12.9898 8.80432 13.119 8.99928 13.2318L9.5 12.3662L9.5 13L10.5 13L10.5 12.3662L11.0007 13.2318C11.1957 13.119 11.3621 12.9898 11.5 12.8442L11.5 15L8.5 15L8.5 12.8442Z" clip-rule="evenodd" fill-rule="evenodd" fill="#000000" fill-opacity="1.000000"/>
</svg>
