<svg width="20.000000" height="20.000000" viewBox="0 0 20 20" fill="none" xmlns="http://www.w3.org/2000/svg" xmlns:xlink="http://www.w3.org/1999/xlink">
	<path id="形状结合" d="M6 2L7 2L7 4L13.0042 4L13.0042 2L14.0042 2L14.0042 4L16 4C16.5523 4 17 4.44772 17 5L17 16C17 16.5523 16.5523 17 16 17L4 17C3.44772 17 3 16.5523 3 16L3 5C3 4.44772 3.44772 4 4 4L6 4L6 2ZM16 5L4 5L4 16L16 16L16 5ZM12.25 8.25C12.25 7.00735 11.2426 6 10 6L9.84595 6.00519C8.67517 6.08435 7.75 7.05914 7.75 8.25C7.75 9.49265 8.75735 10.5 10 10.5L10.1541 10.4948C11.3248 10.4156 12.25 9.44086 12.25 8.25ZM10 7C9.30963 7 8.75 7.55963 8.75 8.25C8.75 8.94037 9.30963 9.5 10 9.5C10.6904 9.5 11.25 8.94037 11.25 8.25C11.25 7.55963 10.6904 7 10 7ZM11 11C12.6569 11 14 12.3431 14 14L14 15L6 15L6 14C6 12.3431 7.34314 11 9 11L11 11ZM11.1493 12.0055L11 12L9 12C7.94565 12 7.08185 12.8159 7.00549 13.8507L7 14L13 14C13 12.9456 12.1841 12.0818 11.1493 12.0055Z" clip-rule="evenodd" fill-rule="evenodd" fill="#000000" fill-opacity="1.000000"/>
</svg>
