<svg width="20.000000" height="20.000000" viewBox="0 0 20 20" fill="none" xmlns="http://www.w3.org/2000/svg" xmlns:xlink="http://www.w3.org/1999/xlink">
	<path id="形状结合" d="M3 7L5 7L9.18762 3.64987C9.51501 3.38797 10 3.62106 10 4.04031L10 15.9597C10 16.3789 9.51501 16.612 9.18762 16.3501L5 13L3 13C2.44769 13 2 12.5523 2 12L2 8C2 7.44769 2.44769 7 3 7ZM15.3726 4.07242C15.4695 4.16034 15.5643 4.25061 15.6569 4.34314C17.1472 5.8334 18 7.84982 18 10C18 12.1502 17.1472 14.1666 15.6569 15.6568L15.5164 15.7939L15.3726 15.9276L14.7008 15.1868C14.7857 15.1098 14.8687 15.0308 14.9498 14.9497C16.2543 13.6451 17 11.8822 17 10C17 8.11777 16.2543 6.35486 14.9498 5.05023L14.8267 4.93018L14.7008 4.81317L15.3726 4.07242ZM13.057 6.56882L12.5421 7.42609L12.6664 7.50494C12.8298 7.61432 12.9822 7.73956 13.1213 7.87866C13.6806 8.43796 14 9.19305 14 10C14 10.8069 13.6806 11.562 13.1213 12.1213C12.9822 12.2604 12.8298 12.3857 12.6664 12.495L12.5421 12.5739L13.057 13.4312L13.2227 13.326C13.4404 13.1803 13.6432 13.0136 13.8284 12.8284C14.5734 12.0834 15 11.0749 15 10C15 8.92511 14.5734 7.91653 13.8284 7.17157C13.6432 6.98639 13.4404 6.81967 13.2227 6.67398L13.057 6.56882Z" clip-rule="evenodd" fill-rule="evenodd" fill="#000000" fill-opacity="1.000000"/>
</svg>
