<svg width="20.000000" height="20.000000" viewBox="0 0 20 20" fill="none" xmlns="http://www.w3.org/2000/svg" xmlns:xlink="http://www.w3.org/1999/xlink">
	<path id="形状结合" d="M10.7747 2.37729L18.2549 15.6753C18.5882 16.2679 18.16 17 17.4801 17L2.51987 17C1.84003 17 1.41183 16.2679 1.74515 15.6753L9.22528 2.37729C9.56509 1.77316 10.4349 1.77316 10.7747 2.37729ZM9.25 7.5L10.75 7.5L10.5 12L9.5 12L9.25 7.5ZM10.8 13.8C10.8 14.2414 10.4414 14.6 10 14.6C9.55859 14.6 9.20001 14.2414 9.20001 13.8C9.20001 13.3586 9.55859 13 10 13C10.4414 13 10.8 13.3586 10.8 13.8Z" clip-rule="evenodd" fill-rule="evenodd" fill="#000000" fill-opacity="1.000000"/>
</svg>
