<svg width="20.000000" height="20.000000" viewBox="0 0 20 20" fill="none" xmlns="http://www.w3.org/2000/svg" xmlns:xlink="http://www.w3.org/1999/xlink">
	<path id="形状结合" d="M10.4358 2.03836C10.5777 2.11816 10.6949 2.23541 10.7747 2.37729L18.2549 15.6753C18.4955 16.1032 18.3438 16.6452 17.9159 16.8858C17.7829 16.9607 17.6328 17 17.4801 17L2.51987 17C2.02896 17 1.63098 16.602 1.63098 16.1111C1.63098 15.9585 1.67029 15.8084 1.74515 15.6753L9.22528 2.37729C9.46594 1.94943 10.0079 1.79767 10.4358 2.03836ZM2.70901 16L10 3.039L17.29 16L2.70901 16ZM9.5 12L9.25 7.5L10.75 7.5L10.5 12L9.5 12ZM10.8 13.8C10.8 14.2414 10.4414 14.6 10 14.6C9.55859 14.6 9.20001 14.2414 9.20001 13.8C9.20001 13.3586 9.55859 13 10 13C10.4414 13 10.8 13.3586 10.8 13.8Z" clip-rule="evenodd" fill-rule="evenodd" fill="#000000" fill-opacity="1.000000"/>
</svg>
