<svg width="20.000000" height="20.000000" viewBox="0 0 20 20" fill="none" xmlns="http://www.w3.org/2000/svg" xmlns:xlink="http://www.w3.org/1999/xlink">
	<path id="形状" d="M13.1949 7.72748C13.2628 7.7276 13.3307 7.72882 13.3986 7.73114L13.3986 7.73041C12.8218 5.58716 10.52 4 7.78183 4C4.59637 4 2 6.15497 2 8.828C2 10.2827 2.76944 11.5925 4.0051 12.4728C4.10596 12.5494 4.16544 12.669 4.16583 12.7962C4.16583 12.832 4.14838 12.8854 4.14838 12.9221C4.0589 13.2806 3.89746 13.8733 3.88 13.8909C3.86182 13.945 3.84436 13.9808 3.84436 14.035C3.84555 14.1436 3.93277 14.2314 4.04074 14.2326C4.07635 14.2326 4.112 14.2143 4.14838 14.196L5.41965 13.4606C5.51123 13.4039 5.61615 13.3729 5.72363 13.3706C5.77747 13.3706 5.83127 13.3706 5.8851 13.3889C6.49707 13.5612 7.12891 13.6517 7.76437 13.6581L7.8291 13.6581C7.72147 13.285 7.66327 12.8928 7.66327 12.4874C7.66327 9.82019 10.1593 7.72748 13.1949 7.72748ZM6.57162 7.28619C6.57162 7.68793 6.24146 8.03699 5.82474 8.03699C5.40872 8.03699 5.07855 7.70551 5.07855 7.28619C5.07855 6.86694 5.40872 6.53546 5.82474 6.53546C6.24146 6.53546 6.57162 6.86694 6.57162 7.28619ZM9.65018 8.03699C10.0669 8.03699 10.3964 7.68793 10.3964 7.28619C10.3964 6.86694 10.0669 6.53546 9.65018 6.53546C9.23346 6.53546 8.90399 6.86694 8.90399 7.28619C8.90399 7.70551 9.23346 8.03699 9.65018 8.03699ZM16.3389 15.5256C16.2433 15.579 16.1928 15.6883 16.2138 15.7963C16.2138 15.8314 16.2138 15.8672 16.232 15.9039C16.3033 16.209 16.4458 16.6949 16.4458 16.7131C16.4458 16.7666 16.464 16.8024 16.464 16.839C16.464 16.8818 16.4471 16.9229 16.4169 16.9531C16.3867 16.9833 16.3458 17.0002 16.3033 17C16.2669 17 16.2495 16.9824 16.2138 16.9648L15.16 16.3531C15.0831 16.3105 14.9975 16.286 14.9098 16.2814C14.8567 16.2814 14.8029 16.2814 14.7673 16.299C14.2669 16.4432 13.7491 16.5148 13.1956 16.5148C10.5338 16.5148 8.39053 14.717 8.39053 12.4866C8.39053 10.2571 10.5338 8.45844 13.1956 8.45844C15.8567 8.45844 18 10.2571 18 12.4866C18 13.6918 17.3571 14.7887 16.3389 15.5263L16.3389 15.5256ZM12.216 11.1805C12.2113 11.5414 11.9216 11.8329 11.5629 11.8376C11.2 11.8376 10.9098 11.5464 10.9098 11.1805C10.9098 10.8161 11.1993 10.5234 11.5629 10.5234C11.9251 10.5234 12.216 10.8161 12.216 11.1805ZM15.4342 11.1805C15.4295 11.5414 15.1398 11.8329 14.7811 11.8376C14.4189 11.8376 14.128 11.5464 14.128 11.1805C14.128 10.8161 14.4182 10.5234 14.7811 10.5234C15.144 10.5234 15.4342 10.8161 15.4342 11.1805Z" clip-rule="evenodd" fill-rule="evenodd" fill="#000000" fill-opacity="1.000000"/>
</svg>
