<svg width="20.000000" height="20.000000" viewBox="0 0 20 20" fill="none" xmlns="http://www.w3.org/2000/svg" xmlns:xlink="http://www.w3.org/1999/xlink">
	<path id="形状结合" d="M13.5579 7.51453C12.8067 5.43793 10.5278 4 7.92044 4C4.67096 4 2 6.22614 2 9.02625L2.00113 9.12402L2.00464 9.22369C2.06714 10.5487 2.75693 11.7234 3.86792 12.5873L3.8855 12.601L3.83081 12.7847L3.44568 13.9918L3.33112 14.362L3.28589 14.5205L3.26755 14.5942L3.26089 14.6261C3.25571 14.6531 3.25198 14.6783 3.25003 14.7074C3.24008 14.8563 3.25076 14.9489 3.38565 15.0924C3.58743 15.3071 3.73077 15.292 3.93243 15.2187C3.96625 15.2064 3.99484 15.1927 4.02582 15.176C4.04398 15.1661 4.0636 15.1548 4.08521 15.1417L4.15649 15.0968L4.30029 15.0008L4.48953 14.8695L4.71176 14.712L5.27359 14.3062L5.97675 13.7905L5.97925 13.7894C5.98639 13.7865 5.99396 13.785 6.00159 13.7848L6.00723 13.7844L6.0007 13.7816L6.16122 13.825C6.6572 13.9529 7.16516 14.028 7.67664 14.0488C7.51505 13.7224 7.39618 13.3782 7.32553 13.0212L7.30801 13.0196L7.1297 12.9979C6.89227 12.9655 6.65619 12.9194 6.42307 12.8598L6.28448 12.8228L6.25784 12.8144C6.17072 12.7894 6.10175 12.7849 5.99091 12.7849C5.79016 12.7891 5.60468 12.844 5.44293 12.944L5.40933 12.9667L4.5 13.75L4.85477 12.8485L4.88431 12.7327L4.88425 12.702L4.8923 12.6572C4.89755 12.6231 4.9007 12.5904 4.9007 12.5532C4.89981 12.2769 4.77118 12.018 4.55243 11.8518C3.57162 11.1162 3 10.1253 3 9.02625C3 6.82281 5.18707 5 7.92044 5L8.02127 5.00085L8.12512 5.00342C10.0591 5.06854 11.7228 6.05164 12.4402 7.44849L12.4723 7.513C12.6438 7.50439 12.8198 7.5 13.0005 7.5C13.1914 7.5 13.3772 7.50488 13.5579 7.51453ZM5.82474 8.03699C6.24146 8.03699 6.57162 7.68793 6.57162 7.28619C6.57162 6.86694 6.24146 6.53546 5.82474 6.53546C5.40872 6.53546 5.07855 6.86694 5.07855 7.28619C5.07855 7.70551 5.40872 8.03699 5.82474 8.03699ZM10.3964 7.28619C10.3964 7.68793 10.0669 8.03699 9.65018 8.03699C9.23346 8.03699 8.90399 7.70551 8.90399 7.28619C8.90399 6.86694 9.23346 6.53546 9.65018 6.53546C10.0669 6.53546 10.3964 6.86694 10.3964 7.28619ZM13.0048 8.25C10.2515 8.25 8 10.1381 8 12.5264C8 14.9153 10.2512 16.8029 13.0048 16.8029L13.1577 16.801C13.6143 16.7902 14.0507 16.73 14.4755 16.6196L14.5965 16.5862L15.1735 16.978L15.4856 17.1863L15.6968 17.3241L15.8203 17.4022L15.903 17.4523L15.9649 17.4875C15.9835 17.4976 16.0004 17.5063 16.0167 17.514C16.0471 17.5283 16.076 17.5401 16.1113 17.5503L16.1487 17.5599L16.1735 17.5638L16.2405 17.5708L16.2843 17.5713L16.3201 17.5699C16.359 17.5664 16.3906 17.5554 16.446 17.5245L16.5001 17.4929L16.6127 17.4235L16.6948 17.2811L16.7216 17.2323L16.7406 17.1945C16.7432 17.189 16.7455 17.1838 16.7475 17.1788L16.757 17.1521C16.7616 17.1358 16.763 17.122 16.7628 17.1068L16.7604 17.0684L16.7576 17.0063L16.7534 16.9742C16.7503 16.954 16.7464 16.9339 16.7415 16.9125L16.7255 16.8494L16.7057 16.78L16.6163 16.4951L16.4447 15.9702L16.3772 15.7563L16.359 15.6953L16.3997 15.6641C17.4107 14.868 18.0089 13.7364 18.0089 12.5264C18.0089 10.1381 15.7575 8.25 13.0048 8.25ZM17.0089 12.5264C17.0089 10.7332 15.2404 9.25 13.0048 9.25C10.7686 9.25 9 10.7332 9 12.5264C9 14.3202 10.7683 15.8029 13.0048 15.8029C13.4759 15.8029 13.9149 15.7424 14.3398 15.6201L14.31 15.628L14.3334 15.6189C14.4049 15.5927 14.7365 15.5483 14.875 15.625L15.625 16.125C15.625 16.125 15.5 15.75 15.5 15.625C15.5 15.6075 15.4989 15.5847 15.4975 15.5581C15.4894 15.3948 15.4741 15.0872 15.6691 14.9626L15.735 14.9141C16.5175 14.3171 16.9794 13.4873 17.0075 12.6113L17.0089 12.5264ZM12.216 11.6571C12.2113 12.018 11.9216 12.3094 11.5629 12.3142C11.2 12.3142 10.9098 12.0229 10.9098 11.6571C10.9098 11.2927 11.1993 11 11.5629 11C11.9251 11 12.216 11.2927 12.216 11.6571ZM14.7811 12.3142C15.1398 12.3094 15.4295 12.018 15.4342 11.6571C15.4342 11.2927 15.144 11 14.7811 11C14.4182 11 14.128 11.2927 14.128 11.6571C14.128 12.0229 14.4189 12.3142 14.7811 12.3142Z" clip-rule="evenodd" fill-rule="evenodd" fill="#000000" fill-opacity="1.000000"/>
</svg>
