<svg width="20.000000" height="20.000000" viewBox="0 0 20 20" fill="none" xmlns="http://www.w3.org/2000/svg" xmlns:xlink="http://www.w3.org/1999/xlink">
	<path id="形状结合" d="M10 2C13.7277 2 16.8599 4.54956 17.748 8L16.7101 8C15.8495 5.10852 13.171 3 10 3C6.13403 3 3 6.134 3 10C3 13.866 6.13403 17 10 17C12.319 17 14.3747 15.8723 15.6485 14.1353L14.7549 13.7187L16.9597 12.54L17.4739 14.9865L16.5704 14.5652C15.1252 16.6413 12.7213 18 10 18C5.58173 18 2 14.4183 2 10C2 5.58173 5.58173 2 10 2ZM9.18414 9L7.22906 6L8.42261 6L9.99316 8.41L11.574 6L12.77 6L10.8028 9L12.5 9L12.5 10L10.5022 10L10.5023 11L12.5 11L12.5 12L10.5024 12L10.5025 14L9.5025 14L9.50232 12L7.5 12L7.5 11L9.50226 11L9.5022 10L7.5 10L7.5 9L9.18414 9Z" clip-rule="evenodd" fill-rule="evenodd" fill="#000000" fill-opacity="1.000000"/>
</svg>
