<svg width="20.000000" height="20.000000" viewBox="0 0 20 20" fill="none" xmlns="http://www.w3.org/2000/svg" xmlns:xlink="http://www.w3.org/1999/xlink">
	<path id="形状结合" d="M12.0835 2.56403C12.6091 3.03741 12.8611 3.7312 12.7639 4.36841L12.5586 7.00183L14.9879 6.72021C15.5573 6.59668 16.1516 6.77386 16.5513 7.18646C16.9511 7.59906 17.097 8.18579 16.9352 8.72998C16.888 8.97595 16.8501 9.22351 16.8216 9.47217L16.8162 9.54529C16.8166 9.55261 16.8177 9.55884 16.8199 9.5661L16.8543 9.66394C16.9608 9.95837 17.002 10.2181 16.9733 10.6024C16.9537 10.9041 16.886 11.2011 16.7726 11.4827L16.7361 11.5756C16.6879 11.7031 16.6708 11.7643 16.6622 11.8617C16.6547 11.9464 16.6537 12.0063 16.6606 12.0803L16.6855 12.2581C16.7314 12.5352 16.7454 12.6945 16.7322 12.9504C16.7192 13.2031 16.6565 13.4504 16.5482 13.6793L16.425 13.9055L16.3807 13.9824C16.4056 14.2422 16.404 14.5034 16.3784 14.7374C16.3317 15.4116 15.834 15.9756 15.1201 16.1334L6.95415 17.558L4.657 17.9688C4.23389 18.0597 3.79146 17.9495 3.46567 17.6721C3.13905 17.395 2.96953 16.9828 3.00452 16.6302L3.00529 11.1074C3.03923 10.472 3.50943 9.93835 4.15076 9.80737L6.6532 9.28186L6.67265 9.27356C7.16644 9.02142 7.71468 8.03845 8.15327 6.58356C8.36246 5.89276 8.53432 5.14685 8.67195 4.40015C8.73387 4.06335 8.78807 3.72528 8.83449 3.38617C8.94183 2.72565 9.45451 2.19617 10.1269 2.05139C10.8268 1.89886 11.5578 2.09064 12.0835 2.56403ZM10.3374 3.02893C10.6775 2.9549 11.0281 3.02637 11.3019 3.21783L11.404 3.29901L11.5107 3.40601C11.719 3.64325 11.8161 3.9502 11.7753 4.21765L11.4672 8.13501L15.1031 7.71356L15.2391 7.69336C15.5004 7.66943 15.6976 7.74243 15.8332 7.88232C15.9824 8.03632 16.0351 8.24835 15.9766 8.44495L15.9008 8.84631L15.8483 9.19354L15.8188 9.45331L15.8105 9.56732C15.81 9.5943 15.8117 9.61407 15.8156 9.63837L15.8338 9.73627L15.8736 9.88983L15.9446 10.0989C15.9823 10.2313 15.9898 10.3444 15.976 10.5277C15.9627 10.7333 15.9187 10.926 15.845 11.1091L15.8056 11.2093L15.7505 11.364C15.7035 11.5079 15.6791 11.6257 15.666 11.7742C15.6457 12.0045 15.6551 12.1572 15.699 12.4218L15.7297 12.6381C15.7386 12.7272 15.7387 12.7982 15.7335 12.8988C15.7257 13.0514 15.6802 13.2003 15.6003 13.3339L15.3548 13.7601L15.3853 14.0778L15.3972 14.2677C15.401 14.3936 15.3966 14.5166 15.3843 14.6284C15.3649 14.8968 15.188 15.0942 14.9043 15.157L7 16.535L7 10.216L7.04605 10.2015L7.06549 10.1932L7.21898 10.1065C8.02498 9.60419 8.63031 8.46576 9.11072 6.87219C9.32207 6.17426 9.5042 5.40161 9.6554 4.58142C9.72015 4.22919 9.77676 3.87604 9.82524 3.52179C9.86226 3.29602 10.0638 3.08789 10.3374 3.02893ZM6 10.4409L4.35088 10.7871C4.17973 10.8221 4.05396 10.9421 4.01648 11.0532L4.00529 11.1076L3.99963 16.7289C3.99719 16.7536 4.037 16.8454 4.11397 16.9107C4.18448 16.9707 4.27853 17.0026 4.39217 16.9964L4.481 16.9844L6 16.7128L6 10.4409Z" clip-rule="evenodd" fill-rule="evenodd" fill="#000000" fill-opacity="1.000000"/>
</svg>
