<svg width="20.000000" height="20.000000" viewBox="0 0 20 20" fill="none" xmlns="http://www.w3.org/2000/svg" xmlns:xlink="http://www.w3.org/1999/xlink">
	<path id="形状" d="M12.5132 4.05853C12.5995 3.49194 12.38 2.89386 11.9229 2.48608C11.4659 2.07837 10.8297 1.91302 10.2215 2.04401C9.67513 2.16003 9.25734 2.58734 9.16995 3.12054C9.1615 3.18555 9.14798 3.28363 9.127 3.42212C9.09184 3.6543 9.04852 3.91339 8.99675 4.1925C8.84894 4.98932 8.66325 5.78571 8.43761 6.52637C7.95398 8.11389 7.3526 9.2066 6.70541 9.56757L6.70518 17.5416L15.3448 16.0469C15.9048 15.9243 16.3011 15.478 16.3388 14.9448C16.3659 14.6987 16.3659 14.436 16.3375 14.1755C16.3303 14.1169 16.3387 14.0836 16.3777 14.0115C16.3935 13.9821 16.4687 13.8552 16.4744 13.8453C16.6166 13.598 16.6941 13.376 16.713 13.072C16.7253 12.8409 16.7122 12.698 16.6681 12.4319C16.6315 12.211 16.6236 12.1063 16.6401 11.9198C16.6528 11.7759 16.6791 11.6794 16.7428 11.5149C16.7611 11.4682 16.7611 11.4682 16.781 11.4171C16.8884 11.14 16.9435 10.9246 16.9685 10.6019C16.9953 10.2565 16.9601 10.0385 16.8652 9.77808C16.8496 9.73572 16.8496 9.73572 16.8369 9.70081C16.8021 9.60352 16.7939 9.55286 16.8037 9.45428C16.8062 9.42957 16.8062 9.42957 16.8089 9.40472C16.8224 9.27948 16.8403 9.14587 16.8617 9.00793C16.8921 8.81232 16.9224 8.64856 16.9422 8.55206C17.0812 8.15015 16.9664 7.65845 16.6305 7.31604C16.2946 6.97363 15.7911 6.83527 15.318 6.95526L12.5197 7.27344C12.4402 7.28601 12.3798 7.26855 12.3359 7.22913C12.2921 7.1897 12.2699 7.13275 12.276 7.07532L12.5132 4.05853ZM5.88199 9.80603L5.88199 17.685L4.25233 17.9765C3.9324 18.0448 3.59779 17.9623 3.35143 17.7543C3.10506 17.5462 2.97646 17.2376 3.00357 16.9581L3.00415 11.1828C3.03134 10.6935 3.39774 10.2834 3.89973 10.1836L5.88199 9.80603Z" clip-rule="evenodd" fill-rule="evenodd" fill="#000000" fill-opacity="1.000000"/>
</svg>
